<svg width="75" height="100" viewBox="0 0 75 100" fill="none" xmlns="http://www.w3.org/2000/svg">
<path d="M43.75 26.5625V0H4.6875C2.08984 0 0 2.08984 0 4.6875V95.3125C0 97.9102 2.08984 100 4.6875 100H70.3125C72.9102 100 75 97.9102 75 95.3125V31.25H48.4375C45.8594 31.25 43.75 29.1406 43.75 26.5625ZM56.25 72.6562C56.25 73.9453 55.1953 75 53.9062 75H21.0938C19.8047 75 18.75 73.9453 18.75 72.6562V71.0938C18.75 69.8047 19.8047 68.75 21.0938 68.75H53.9062C55.1953 68.75 56.25 69.8047 56.25 71.0938V72.6562ZM56.25 60.1562C56.25 61.4453 55.1953 62.5 53.9062 62.5H21.0938C19.8047 62.5 18.75 61.4453 18.75 60.1562V58.5938C18.75 57.3047 19.8047 56.25 21.0938 56.25H53.9062C55.1953 56.25 56.25 57.3047 56.25 58.5938V60.1562ZM56.25 46.0938V47.6562C56.25 48.9453 55.1953 50 53.9062 50H21.0938C19.8047 50 18.75 48.9453 18.75 47.6562V46.0938C18.75 44.8047 19.8047 43.75 21.0938 43.75H53.9062C55.1953 43.75 56.25 44.8047 56.25 46.0938ZM75 23.8086V25H50V0H51.1914C52.4414 0 53.6328 0.488281 54.5117 1.36719L73.6328 20.5078C74.5117 21.3867 75 22.5781 75 23.8086Z" fill="#1A3215"/>
</svg>
