<?xml version="1.0" encoding="UTF-8" standalone="no"?>
<svg
   xmlns:dc="http://purl.org/dc/elements/1.1/"
   xmlns:cc="http://creativecommons.org/ns#"
   xmlns:rdf="http://www.w3.org/1999/02/22-rdf-syntax-ns#"
   xmlns:svg="http://www.w3.org/2000/svg"
   xmlns="http://www.w3.org/2000/svg"
   viewBox="0 0 4710.6665 2666.6667"
   height="2666.6667"
   width="4710.6665"
   xml:space="preserve"
   id="svg2"
   version="1.1"><metadata
     id="metadata8"><rdf:RDF><cc:Work
         rdf:about=""><dc:format>image/svg+xml</dc:format><dc:type
           rdf:resource="http://purl.org/dc/dcmitype/StillImage" /></cc:Work></rdf:RDF></metadata><defs
     id="defs6" /><g
     transform="matrix(1.3333333,0,0,-1.3333333,0,2666.6667)"
     id="g10"><g
       transform="scale(0.1)"
       id="g12"><g
         transform="scale(2.16748)"
         id="g14"><path
           id="path16"
           style="fill:#ffffff;fill-opacity:1;fill-rule:nonzero;stroke:none"
           d="M 16300,0 H 0 V 9227.29 H 16300 V 0" /></g><g
         transform="scale(2.05902)"
         id="g18"><path
           id="path20"
           style="fill:#eafcfc;fill-opacity:1;fill-rule:nonzero;stroke:none"
           d="m 15801.8,484.067 c 498.2,692.613 176.9,5152.433 -626.3,5604.183 -416,233.96 -793.5,173.81 -1149,113.67 -398.5,-67.44 -769.5,-134.88 -1135.9,212.33 -302.5,286.48 -52.6,997.46 -677.6,1231.02 -370.1,138.26 -975,-0.78 -1525.1,-139.82 C 9932.84,7314.59 9280.98,7123.73 9481.51,7650.13 9828.23,8560.02 7469.72,9187.69 5220.26,9067.19 2970.8,8946.69 3388.34,7713.38 3419.86,7513.9 3451.38,7314.4 3782.3,6351 2500.63,5908.22 1218.96,5465.44 1513.12,4862.1 1639.18,4516.62 1748.98,4215.75 2369.31,3859.75 1465.84,3081.27 713.652,2433.1 912.163,823.257 1130.66,493.099 l 14671.14,-9.032" /></g><path
         id="path22"
         style="fill:#fbfefe;fill-opacity:1;fill-rule:nonzero;stroke:none"
         d="M 12892.3,12691.7 H 8166.97 c -2.23,21.5 -3.46,43.2 -3.46,65.2 0,371.5 325.07,672.6 726.07,672.6 128.14,0 248.45,-30.9 352.95,-84.8 147.65,376.5 537.29,645.4 994.77,645.4 384.5,0 721.1,-190 906.3,-474.2 80.7,23.3 166.5,35.9 255.5,35.9 344.2,0 640.9,-187.7 777.7,-458.6 47,11.3 96.3,17.4 147.2,17.4 277.1,0 508.8,-179 568.3,-418.9" /><g
         transform="scale(1.06102)"
         id="g24"><path
           id="path26"
           style="fill:#fbfefe;fill-opacity:1;fill-rule:nonzero;stroke:none"
           d="m 15087.3,15255 h -3803.1 c 47.9,193.1 234.4,337.1 457.4,337.1 40.9,0 80.6,-4.8 118.5,-14 110.1,218.1 348.9,369.1 625.9,369.1 71.5,0 140.6,-10.1 205.5,-28.8 149.1,228.7 420,381.6 729.5,381.6 368.2,0 681.8,-216.5 800.6,-519.5 84.1,43.5 180.9,68.3 284,68.3 322.8,0 584.4,-242.3 584.4,-541.3 0,-17.7 -1,-35.2 -2.7,-52.5" /></g><g
         transform="scale(1.15373)"
         id="g28"><path
           id="path30"
           style="fill:#fbfefe;fill-opacity:1;fill-rule:nonzero;stroke:none"
           d="m 16298.6,11290.4 h -1966 c 24.7,99.8 121.2,174.3 236.5,174.3 21.1,0 41.7,-2.5 61.2,-7.2 56.9,112.7 180.4,190.7 323.5,190.7 37.1,0 72.8,-5.2 106.3,-14.9 77.1,118.3 217.1,197.3 377.1,197.3 190.4,0 352.5,-111.9 413.9,-268.5 43.4,22.4 93.5,35.3 146.8,35.3 166.9,0 302.1,-125.3 302.1,-279.8 0,-9.2 -0.5,-18.3 -1.4,-27.2" /></g><g
         transform="scale(1.62429)"
         id="g32"><path
           id="path34"
           style="fill:#fbfefe;fill-opacity:1;fill-rule:nonzero;stroke:none"
           d="m 16298.4,7516.3 h -2179 c 27.5,110.63 134.3,193.17 262.1,193.17 23.5,0 46.2,-2.79 67.9,-8.02 63,124.91 199.9,211.46 358.6,211.46 41,0 80.6,-5.79 117.8,-16.52 85.5,131.03 240.7,218.65 418,218.65 210.9,0 390.5,-124.01 458.6,-297.64 48.2,24.89 103.7,39.12 162.8,39.12 184.9,0 334.8,-138.84 334.8,-310.13 0,-10.15 -0.6,-20.18 -1.6,-30.09" /></g><path
         id="path36"
         style="fill:#e2eefc;fill-opacity:1;fill-rule:nonzero;stroke:none"
         d="m 2977.77,6308.7 v 49.5 h 56.41 c -5.28,-4.6 -10.65,-9.2 -15.99,-13.8 -13.61,-11.8 -27.11,-23.7 -40.42,-35.7" /><g
         transform="scale(1.90664)"
         id="g38"><path
           id="path40"
           style="fill:#cfebf9;fill-opacity:1;fill-rule:nonzero;stroke:none"
           d="M 1561.79,594.502 V 3308.81 c 6.98,6.29 14.06,12.53 21.2,18.72 2.8,2.41 5.62,4.83 8.39,7.24 h 343.56 v 124.88 228.25 l 559.6,540.75 v -817.36 l 167.4,-5.24 v 824.12 h 195.3 v 1240.17 h 117.18 v 235.88 h 457.56 v -235.88 h 117.18 V 5119.17 H 4023.4 V 3783.73 l 95.72,-5.25 5.43,1322.64 h 339.72 v -703.64 l 212.04,-5.25 v 1099.75 h 72.54 v 232.07 h 636.12 v -232.07 h 72.54 V 4009.99 h 133.9 v 462.12 h 111.61 v 225.95 h 161.81 v 659.56 h 234.39 v -659.56 h 161.8 v -225.95 h 111.61 v -781.79 h 78.1 l 61.41,0.73 v 905.78 l 672.76,-14.84 v -625.76 h 425.88 v 267.33 h 502.19 v 1464.8 h 145.07 v 188.7 h 318.05 v -1801.2 h 347.31 v -267.32 h 139.46 v 774.19 l 1651.14,14.84 v -570.8 l 139.4,-0.73 v 446.75 h 111.6 v 226 h 161.8 v 659.56 h 234.2 v -659.56 h 161.8 v -226 h 111.6 v -269.95 h 133.9 V 5492.7 h 72.5 v 232.08 h 635.9 V 5492.7 h 72.5 V 4392.97 l 212,5.24 v 703.65 h 602.4 l 27.1,-1322.64 90,5.24 v 446.44 h 195.3 v 351.2 h 117.1 v 235.86 h 457.4 V 4582.1 h 117.2 v -351.2 h 195.2 v -824.12 l 167.4,5.25 v 817.35 h 559.4 v -769 -124.87 h 341.6 v 387.9 h 239.5 V 2852.19 H 16300 V 595.237 L 9017.6,594.871 1561.79,594.502 M 10106.5,1993.61 v 0 c 1.3,-3.3 2.6,-4.66 4.3,-4.66 1.2,0 2.7,0.68 4.5,1.78 12.9,7.87 26,15.47 39,23.18 118.2,69.92 236.3,139.88 354.6,209.69 3.5,2.1 5.8,3.67 5.8,6.03 0,1.58 -1,3.46 -3.3,6.14 -5.5,6.5 -10.9,13.21 -16.3,19.98 v 0 l -20.2,25.49 c 11.9,7.5 22.5,15.42 32.3,24.13 71.7,63.67 95.9,163.85 61.7,255.26 -32.6,87.12 -114.2,145.34 -207.9,148.28 -2.8,0.1 -5.6,0.15 -8.4,0.15 -63.1,0 -118,-22.87 -163.4,-68.08 l -10.8,13.59 c -2.5,3.09 -4.9,6.13 -7.3,9.23 l -0.1,0.05 c -2.4,3.15 -4.8,6.29 -7.1,9.49 -2.8,3.83 -5.2,5.83 -8.2,5.83 -2,0 -4.2,-0.84 -7,-2.57 -0.8,-0.53 -1.7,-1.05 -2.6,-1.58 -0.2,-0.1 -0.3,-0.21 -0.5,-0.31 -0.8,-0.47 -1.6,-0.95 -2.4,-1.42 -0.3,-0.21 -0.6,-0.37 -0.8,-0.52 -0.6,-0.37 -1.1,-0.69 -1.7,-1 -0.7,-0.42 -1.3,-0.79 -1.9,-1.15 -0.2,-0.16 -0.4,-0.26 -0.6,-0.42 -14.4,-8.6 -28.7,-17.1 -43.1,-25.6 -13.5,-8.02 -27.1,-15.99 -40.5,-24.02 -6.6,-3.88 -13.5,-6.66 -20.9,-8.39 -45.96,-10.65 -91.8,-21.56 -137.75,-32.1 -7.03,-1.57 -8.65,-3.51 -5.14,-10.38 4.41,-8.66 6.87,-18.26 11.23,-26.96 3.98,-8.03 1.99,-12.06 -5.77,-16 -11.49,-5.87 -11.02,-6.35 -5.98,-18.36 17.52,-41.43 34.82,-82.97 52.24,-124.4 22.29,-53.03 44.68,-106 66.97,-159.03 6.7,-15.84 13.1,-31.68 20.4,-49.3 -8.3,3.1 -14.7,5.51 -21.1,7.92 -111.75,41.75 -223.46,83.55 -335.23,125.25 -6.56,2.41 -11.17,6.13 -15,12.01 -14.05,21.61 -28.58,42.95 -43.01,64.35 -5.35,7.92 -10.91,15.63 -17.41,24.86 -22.66,-60.47 -44.69,-119.32 -67.39,-180.05 36.5,9.65 70.8,18.56 105.05,27.85 2.04,0.52 3.98,0.84 5.87,0.84 2.57,0 5.04,-0.53 7.71,-1.68 138.73,-59.74 277.51,-119.42 416.31,-178.95 5.1,-2.21 7.8,-5.46 9.9,-10.49 5.1,-12.49 10.4,-24.97 15.7,-37.4 v 0 c 2.2,-5.3 4.4,-10.54 6.6,-15.84 1.9,-4.46 3.8,-8.97 5.6,-13.43 0,-0.15 0.1,-0.26 0.1,-0.36 0.3,-0.48 0.5,-1 0.7,-1.52 0.1,-0.27 0.2,-0.53 0.3,-0.79 0.1,-0.37 0.3,-0.79 0.5,-1.16 0.1,-0.42 0.3,-0.78 0.4,-1.15 0.3,-0.79 0.7,-1.52 1,-2.31 m 334.4,330.32 -218,274.62 c 32.6,36.03 79.5,56.44 129.7,56.44 1.7,0 3.5,-0.06 5.3,-0.11 52.8,-1.47 101.2,-25.38 132.9,-65.51 5.3,-6.61 10,-13.58 14.6,-21.34 24.5,-41.44 31.2,-89.64 18.9,-135.74 -12.2,-45.89 -41.8,-84.28 -83.4,-108.36" /></g><g
         transform="scale(1.39082)"
         id="g42"><path
           id="path44"
           style="fill:#86b1f2;fill-opacity:1;fill-rule:nonzero;stroke:none"
           d="m 16300,1114.81 c -2773.3,298.1 -6246.5,3192 -8601.68,3529.57 C 5214.75,5000.28 2661.94,1036.22 2661.94,1036.22 L 16300,1070.95 v 43.86" /></g><path
         id="path46"
         style="fill:#355389;fill-opacity:1;fill-rule:nonzero;stroke:none"
         d="m 9707.54,3818 h -171.09 v 1896.6 h 171.09 V 3818" /><path
         id="path48"
         style="fill:#3c8f7c;fill-opacity:1;fill-rule:nonzero;stroke:none"
         d="M 9622,9393.9 9063.49,4880.3 h 1117.01 z" /><path
         id="path50"
         style="fill:#50bfa5;fill-opacity:1;fill-rule:nonzero;stroke:none"
         d="m 9266.05,6517.3 796.35,-682.9 -30.6,247.5 -741,635.4 -24.75,-200" /><path
         id="path52"
         style="fill:#50bfa5;fill-opacity:1;fill-rule:nonzero;stroke:none"
         d="m 9388.48,7506.7 487.66,-166.8 -22.92,185.3 -443.67,151.7 -21.07,-170.2" /><path
         id="path54"
         style="fill:#355389;fill-opacity:1;fill-rule:nonzero;stroke:none"
         d="m 11358.2,3799.3 h -153.4 v 1425.6 h 153.4 V 3799.3" /><path
         id="path56"
         style="fill:#3c8f7c;fill-opacity:1;fill-rule:nonzero;stroke:none"
         d="M 11302.8,7766.6 10901.9,4889 h 801.8 z" /><path
         id="path58"
         style="fill:#50bfa5;fill-opacity:1;fill-rule:nonzero;stroke:none"
         d="m 10927.3,5071.6 719.4,226.8 -10.9,78 -696.6,-219.6 -11.9,-85.2" /><path
         id="path60"
         style="fill:#50bfa5;fill-opacity:1;fill-rule:nonzero;stroke:none"
         d="m 11054,5980.7 476.7,150.3 -10.9,78 -454,-143.1 -11.8,-85.2" /><g
         transform="scale(1.98198)"
         id="g62"><path
           id="path64"
           style="fill:#96d9c9;fill-opacity:1;fill-rule:nonzero;stroke:none"
           d="m 16192.9,1981.91 62.5,128.51 c 44.6,96.22 7.3,208.18 -83.3,250.1 -228.2,105.66 -504.1,-5.24 -616.4,-247.68 l -82,-177.19 c -36,-77.66 -108.4,-125.99 -184.5,-131.84 -69.2,-5.3 -131.2,-51.17 -161.7,-117.11 l -43.3,-93.39 c -46.8,-101.16 -45.8,-216.3 -0.8,-313.98 26.3,-57.17 27.7,-126.89 -1.8,-190.67 l -61.2,-132.291 c -67.7,-146.267 -11,-316.503 126.7,-380.228 l 78.6,-36.376 c 137.7,-63.725 304.2,3.179 371.9,149.446 62.9,195.211 167,276.492 258.4,308.178 134.4,46.621 247.1,147.431 308.8,280.781 l 8.7,18.67 c 65.1,140.72 65,300.76 4.3,437.59 -26.7,60.45 -33.7,142.03 15.1,247.48" /></g><path
         id="path66"
         style="fill:#96d9c9;fill-opacity:1;fill-rule:nonzero;stroke:none"
         d="m 2643.03,3930.8 -123.94,254.8 c -88.26,190.7 -14.3,412.6 165.18,495.7 452.29,209.3 999.25,-10.4 1221.65,-490.9 l 162.6,-351.3 c 71.24,-153.8 214.81,-249.6 365.7,-261.2 137.03,-10.5 259.92,-101.4 320.41,-232.1 l 85.73,-185.2 c 92.8,-200.5 90.86,-428.6 1.75,-622.3 -52.11,-113.2 -55.05,-251.4 3.45,-377.8 l 121.37,-262.2 c 134.19,-289.9 21.75,-627.3 -251.14,-753.6 l -155.7,-72.1 c -272.89,-126.299 -602.9,6.3 -737.09,296.2 v 0 c -124.7,386.9 -331.09,547.9 -512.24,610.8 -266.38,92.3 -489.81,292.2 -612.12,556.5 l -17.16,37 c -129.09,278.9 -128.83,596 -8.56,867.3 53.1,119.8 66.83,281.5 -29.89,490.4" /><g
         transform="scale(1.5365)"
         id="g68"><path
           id="path70"
           style="fill:#355389;fill-opacity:1;fill-rule:nonzero;stroke:none"
           d="M 16188.6,1023.04 H 16300 V 2257.4 h -111.4 V 1023.04" /></g><g
         transform="scale(1.56552)"
         id="g72"><path
           id="path74"
           style="fill:#3c8f7c;fill-opacity:1;fill-rule:nonzero;stroke:none"
           d="M 15943.2,4565.76 16300,1682.64 h -713.5 l 356.7,2883.12" /></g><g
         transform="scale(1.55309)"
         id="g76"><path
           id="path78"
           style="fill:#50bfa5;fill-opacity:1;fill-rule:nonzero;stroke:none"
           d="m 16300,2750.13 -512.8,-439.71 19.7,159.36 477.2,409.12 15.9,-128.77" /></g><g
         transform="scale(1.54558)"
         id="g80"><path
           id="path82"
           style="fill:#50bfa5;fill-opacity:1;fill-rule:nonzero;stroke:none"
           d="m 16300,3403.64 -315.5,-107.92 14.8,119.89 287,98.15 13.7,-110.12" /></g><g
         transform="scale(1.4603)"
         id="g84"><path
           id="path86"
           style="fill:#355389;fill-opacity:1;fill-rule:nonzero;stroke:none"
           d="m 16195,1063.62 h 105 v 976.23 h -105 v -976.23" /></g><g
         transform="scale(1.47888)"
         id="g88"><path
           id="path90"
           style="fill:#3c8f7c;fill-opacity:1;fill-rule:nonzero;stroke:none"
           d="M 16028.9,3732.88 16300,1787.09 h -542.2 l 271.1,1945.79" /></g><g
         transform="scale(1.47733)"
         id="g92"><path
           id="path94"
           style="fill:#50bfa5;fill-opacity:1;fill-rule:nonzero;stroke:none"
           d="m 16300,1912.58 -487,153.52 7.4,52.8 471.5,-148.65 8.1,-57.67" /></g><g
         transform="scale(1.46955)"
         id="g96"><path
           id="path98"
           style="fill:#50bfa5;fill-opacity:1;fill-rule:nonzero;stroke:none"
           d="m 16300,2541.32 -324.4,102.28 7.4,53.07 309,-97.37 8,-57.98" /></g><g
         transform="scale(1.79848)"
         id="g100"><path
           id="path102"
           style="fill:#96d9c9;fill-opacity:1;fill-rule:nonzero;stroke:none"
           d="m 1292.36,567.033 c 0,0 1916.98,1829.147 4388.76,1941.467 829.97,37.75 4228.67,-718.71 7090.68,-1313.05 120.3,-24.96 3119.8,-623.024 3528.2,-641.094 L 1292.36,567.033" /></g><g
         transform="scale(1.87676)"
         id="g104"><path
           id="path106"
           style="fill:#50bfa5;fill-opacity:1;fill-rule:nonzero;stroke:none"
           d="m 14073.1,531.234 c 0,0 479.9,637.426 781.9,735.206 302,97.77 17.4,-290.502 17.4,-290.502 0,0 535.7,585.792 732.3,532.992 180.2,-48.43 0,-411.51 0,-411.51 0,0 203,201.04 449.1,201.04 246.2,0 -190.2,-752.891 -190.2,-752.891 l -1790.5,-14.335" /></g><g
         transform="scale(2.02187)"
         id="g108"><path
           id="path110"
           style="fill:#3c8f7c;fill-opacity:1;fill-rule:nonzero;stroke:none"
           d="m 14499.1,496.421 c 0,0 304.5,814.349 681.6,720.179 305.6,-76.32 88.3,-486.038 107,-467.443 18.6,18.648 182.5,296.753 447.7,296.753 265.2,0 -81.4,-375.343 -81.4,-375.343 0,0 565,176.471 609.3,-8.852 36.7,-153.77 -168.7,-165.294 -168.7,-165.294 h -1595.5" /></g><path
         id="path112"
         style="fill:#50bfa5;fill-opacity:1;fill-rule:nonzero;stroke:none"
         d="m 6455.2,997 c 0,0 -900.66,1196.3 -1467.44,1379.8 -566.77,183.5 -32.59,-545.2 -32.59,-545.2 0,0 -978.53,1335 -1347.5,1235.9 -338.22,-90.8 -200.48,-765.1 -200.48,-765.1 0,0 -207.36,134.5 -669.31,134.5 -461.96,0 357.05,-1413 357.05,-1413 L 6455.2,997" /><path
         id="path114"
         style="fill:#3c8f7c;fill-opacity:1;fill-rule:nonzero;stroke:none"
         d="m 4278.58,1003.7 c 0,0 -441.83,1181.6 -989.01,1045 -443.43,-110.8 -128.16,-705.3 -155.19,-678.3 -27.04,27.1 -264.87,430.6 -649.67,430.6 -384.81,0 118.12,-544.6 118.12,-544.6 0,0 -819.87,256 -884.07,-12.8 -53.28,-223.2 244.7,-239.9 244.7,-239.9 h 2315.12" /><path
         id="path116"
         style="fill:#3c8f7c;fill-opacity:1;fill-rule:nonzero;stroke:none"
         d="m 7141.94,1367.7 c 4.04,23.9 6.14,48.3 6.14,73.2 0,277.3 -259.9,502.1 -580.5,502.1 -320.59,0 -580.49,-224.8 -580.49,-502.1 0,-24.9 2.1,-49.3 6.14,-73.2 h 1148.71" /><path
         id="path118"
         style="fill:#50bfa5;fill-opacity:1;fill-rule:nonzero;stroke:none"
         d="m 7798.9,1491.1 c 4.03,33.7 6.13,68.2 6.13,103.2 0,391.1 -259.89,708.1 -580.48,708.1 -320.6,0 -580.5,-317 -580.5,-708.1 0,-35 2.1,-69.5 6.14,-103.2 H 7798.9" /><path
         id="path120"
         style="fill:#50bfa5;fill-opacity:1;fill-rule:nonzero;stroke:none"
         d="m 7586.36,1057.2 c -4.04,23.9 -6.14,48.3 -6.14,73.2 0,277.3 259.9,502.1 580.5,502.1 320.59,0 580.49,-224.8 580.49,-502.1 0,-24.9 -2.1,-49.3 -6.14,-73.2 H 7586.36" /><path
         id="path122"
         style="fill:#3c8f7c;fill-opacity:1;fill-rule:nonzero;stroke:none"
         d="m 6657.32,1057.2 c -5.11,33.7 -7.77,68.1 -7.77,103.2 0,391.1 329.46,708.1 735.88,708.1 406.43,0 735.89,-317 735.89,-708.1 0,-35.1 -2.66,-69.5 -7.78,-103.2 H 6657.32" /><path
         id="path124"
         style="fill:#50bfa5;fill-opacity:1;fill-rule:nonzero;stroke:none"
         d="m 7222.35,1868.5 c -203.13,0 -384.59,-100.6 -504.35,-258.3 -60.98,14.5 -125.78,22.3 -192.95,22.3 -360.62,0 -652.97,-224.8 -652.97,-502.1 0,-24.9 2.36,-49.3 6.9,-73.2 h 1989.44 c 4.54,33.7 6.9,68.1 6.9,103.2 0,391.1 -292.34,708.1 -652.97,708.1" /><path
         id="path126"
         style="fill:#3c8f7c;fill-opacity:1;fill-rule:nonzero;stroke:none"
         d="m 4705.97,2548.7 c -170.88,266.9 -202.77,589.3 -199.42,812.8 3.62,242.5 48.39,424.2 48.84,426 l -12.36,4.3 c -0.45,-1.8 -45.58,-184.7 -49.27,-428.9 -3.41,-225.7 28.84,-551.4 201.83,-821.7 l 10.38,7.5" /><path
         id="path128"
         style="fill:#3c8f7c;fill-opacity:1;fill-rule:nonzero;stroke:none"
         d="m 4597.47,3831.8 c -4.2,-54.9 -28.51,-100.9 -63.49,-129.2 -29.9,38.3 -46.68,90.6 -42.48,145.5 4.2,54.9 28.5,100.9 63.49,129.2 29.9,-38.2 46.68,-90.6 42.48,-145.5" /><path
         id="path130"
         style="fill:#3c8f7c;fill-opacity:1;fill-rule:nonzero;stroke:none"
         d="m 4481.98,3705.1 c 28.98,-47.5 37.97,-101.6 28.68,-148.5 -44.39,10.6 -87.35,41.6 -116.33,89.1 -28.99,47.5 -37.98,101.6 -28.7,148.6 44.39,-10.6 87.36,-41.7 116.35,-89.2" /><path
         id="path132"
         style="fill:#3c8f7c;fill-opacity:1;fill-rule:nonzero;stroke:none"
         d="m 4416.55,3556 c 45.01,-29.3 75.52,-74.5 87.25,-122.2 -42.77,-12.1 -92.94,-4.8 -137.96,24.5 -45.01,29.3 -75.52,74.5 -87.26,122.2 42.79,12.1 92.95,4.8 137.97,-24.5" /><path
         id="path134"
         style="fill:#3c8f7c;fill-opacity:1;fill-rule:nonzero;stroke:none"
         d="m 4436.72,3348.4 c 35.64,-23.3 57.73,-63.1 63.75,-107.1 -37.13,-15.8 -78.92,-13.9 -114.55,9.4 -35.64,23.3 -57.73,63.1 -63.75,107.1 37.13,15.8 78.92,13.9 114.55,-9.4" /><path
         id="path136"
         style="fill:#3c8f7c;fill-opacity:1;fill-rule:nonzero;stroke:none"
         d="m 4583.99,3594.4 c 40.06,21.4 84.9,22.6 123.29,7.1 -10.14,-41.4 -37.1,-78.6 -77.17,-100 -40.06,-21.4 -84.9,-22.6 -123.28,-7.1 10.13,41.4 37.1,78.6 77.16,100" /><path
         id="path138"
         style="fill:#3c8f7c;fill-opacity:1;fill-rule:nonzero;stroke:none"
         d="m 4579.55,3451 c 40.07,21.4 84.91,22.6 123.29,7.1 -10.14,-41.4 -37.1,-78.6 -77.17,-100 -40.05,-21.4 -84.9,-22.6 -123.28,-7.1 10.14,41.4 37.1,78.6 77.16,100" /><path
         id="path140"
         style="fill:#3c8f7c;fill-opacity:1;fill-rule:nonzero;stroke:none"
         d="m 4462.51,3120.3 c 21.19,-5 38.76,-19.3 49.37,-37.9 -15.05,-12.6 -35.45,-18 -56.63,-13.1 -21.18,5 -38.76,19.3 -49.36,37.9 15.05,12.6 35.44,18 56.62,13.1" /><path
         id="path142"
         style="fill:#3c8f7c;fill-opacity:1;fill-rule:nonzero;stroke:none"
         d="m 4635.51,2360 c -391.07,93.5 -689.33,382.8 -870.67,609 -196.87,245.6 -302.34,471.9 -303.38,474.2 l -15.92,-8.2 c 1.05,-2.3 107.26,-230.3 305.39,-477.5 183.09,-228.5 484.45,-520.7 880.36,-615.4 l 4.22,17.9" /><path
         id="path144"
         style="fill:#3c8f7c;fill-opacity:1;fill-rule:nonzero;stroke:none"
         d="m 3466.75,3529.9 c 41.18,-58.9 54.99,-129.4 43.46,-192.9 -61.41,7.8 -121.4,43.1 -162.58,102.1 -41.18,58.9 -55,129.4 -43.46,193 61.41,-7.9 121.4,-43.2 162.58,-102.2" /><path
         id="path146"
         style="fill:#3c8f7c;fill-opacity:1;fill-rule:nonzero;stroke:none"
         d="m 3456.3,3286.9 c 68.17,-18.1 121.83,-63 151.37,-119.2 -53.01,-34.3 -121.53,-46.7 -189.7,-28.7 -68.17,18.1 -121.82,63 -151.36,119.1 53.01,34.4 121.53,46.8 189.69,28.8" /><path
         id="path148"
         style="fill:#3c8f7c;fill-opacity:1;fill-rule:nonzero;stroke:none"
         d="m 3514.29,3072 c 69.11,16.3 136.9,2.1 188,-33.6 -32.6,-55.4 -88.67,-98.8 -157.78,-115.1 -69.1,-16.3 -136.89,-2 -187.99,33.6 32.59,55.4 88.67,98.8 157.77,115.1" /><path
         id="path150"
         style="fill:#3c8f7c;fill-opacity:1;fill-rule:nonzero;stroke:none"
         d="m 3670.1,2876.7 c 69.1,16.2 136.89,2 187.99,-33.7 -32.6,-55.3 -88.67,-98.8 -157.78,-115 -69.1,-16.3 -136.89,-2.1 -187.99,33.6 32.6,55.4 88.67,98.8 157.78,115.1" /><path
         id="path152"
         style="fill:#3c8f7c;fill-opacity:1;fill-rule:nonzero;stroke:none"
         d="m 3623.51,3201.4 c -3.49,66.5 18.37,129.1 55.7,174.1 41.56,-35.4 69.65,-91.9 73.13,-158.4 3.49,-66.5 -18.37,-129.1 -55.7,-174.1 -41.56,35.4 -69.65,91.9 -73.13,158.4" /><path
         id="path154"
         style="fill:#3c8f7c;fill-opacity:1;fill-rule:nonzero;stroke:none"
         d="m 3785.99,2999.3 c -4.49,66.4 16.41,129.4 53.06,175.1 42.09,-34.6 71.03,-90.6 75.52,-157 4.49,-66.4 -16.41,-129.4 -53.06,-175.1 -42.09,34.7 -71.03,90.6 -75.52,157" /><path
         id="path156"
         style="fill:#3c8f7c;fill-opacity:1;fill-rule:nonzero;stroke:none"
         d="m 3920.3,2684 c 25.22,16.4 54.57,19.9 80.51,12.1 -4.6,-27.8 -20.45,-53.8 -45.66,-70.3 -25.22,-16.5 -54.58,-20 -80.52,-12.1 4.6,27.7 20.45,53.8 45.67,70.3" /><path
         id="path158"
         style="fill:#3c8f7c;fill-opacity:1;fill-rule:nonzero;stroke:none"
         d="m 5670.67,1807.7 16.91,1.1 c -24.35,447.3 139.84,868.2 281.87,1142.5 154.14,297.7 316.18,491.8 317.8,493.8 l -12.41,12.7 c -1.63,-1.9 -164.79,-197.4 -319.88,-496.8 -143.28,-276.6 -308.9,-701.3 -284.29,-1153.3" /><path
         id="path160"
         style="fill:#3c8f7c;fill-opacity:1;fill-rule:nonzero;stroke:none"
         d="m 6360.66,3470.7 c -38.61,-65 -94.04,-105.4 -150.32,-116.5 -9.51,67.7 4.26,143.9 42.88,209 38.61,65 94.04,105.4 150.32,116.4 9.51,-67.7 -4.27,-143.9 -42.88,-208.9" /><path
         id="path162"
         style="fill:#3c8f7c;fill-opacity:1;fill-rule:nonzero;stroke:none"
         d="m 6154.2,3392.8 c 2.76,-78.6 -20.72,-151.6 -60.06,-203.3 -42.68,43.4 -71.11,111.1 -73.87,189.7 -2.76,78.5 20.73,151.6 60.07,203.3 42.68,-43.4 71.11,-111.2 73.86,-189.7" /><path
         id="path164"
         style="fill:#3c8f7c;fill-opacity:1;fill-rule:nonzero;stroke:none"
         d="m 5989.4,3253 c 31.8,-67 37.67,-143.7 21.19,-210.7 -54.97,14.1 -106.08,57.4 -137.87,124.4 -31.79,67 -37.66,143.7 -21.19,210.7 54.98,-14.1 106.09,-57.4 137.87,-124.4" /><path
         id="path166"
         style="fill:#3c8f7c;fill-opacity:1;fill-rule:nonzero;stroke:none"
         d="m 5876.19,2909.4 c 15.23,-26.9 19.87,-58.9 14.87,-87.5 -23.44,4 -46.08,20.3 -61.3,47.3 -15.23,27 -19.87,58.9 -14.87,87.5 23.44,-4 46.08,-20.3 61.3,-47.3" /><path
         id="path168"
         style="fill:#3c8f7c;fill-opacity:1;fill-rule:nonzero;stroke:none"
         d="m 5827.34,2786.1 c 15.22,-27 19.87,-59 14.87,-87.6 -23.44,4 -46.08,20.4 -61.3,47.3 -15.23,27 -19.87,59 -14.87,87.6 23.43,-4 46.08,-20.4 61.3,-47.3" /><path
         id="path170"
         style="fill:#3c8f7c;fill-opacity:1;fill-rule:nonzero;stroke:none"
         d="m 6198.83,3186.2 c 57.68,-0.9 108.14,-30 141.14,-75.3 -36.86,-44.3 -89.77,-72 -147.45,-71.1 -57.68,0.8 -108.14,30 -141.13,75.3 36.85,44.3 89.76,71.9 147.44,71.1" /><path
         id="path172"
         style="fill:#3c8f7c;fill-opacity:1;fill-rule:nonzero;stroke:none"
         d="m 6105.2,3011.8 c 57.68,-0.8 108.14,-30 141.13,-75.3 -36.86,-44.3 -89.77,-71.9 -147.44,-71.1 -57.68,0.9 -108.15,30 -141.14,75.3 36.86,44.3 89.77,72 147.45,71.1" /><path
         id="path174"
         style="fill:#3c8f7c;fill-opacity:1;fill-rule:nonzero;stroke:none"
         d="m 5950.23,2774.2 c 37.54,-0.6 70.39,-19.5 91.87,-49 -23.99,-28.9 -58.43,-46.8 -95.97,-46.3 -37.54,0.6 -70.39,19.5 -91.86,49 23.99,28.9 58.43,46.8 95.96,46.3" /><path
         id="path176"
         style="fill:#3c8f7c;fill-opacity:1;fill-rule:nonzero;stroke:none"
         d="m 4212.39,1074.2 c 0,74.5 449.65,-13.4 487.06,88.1 37.41,101.4 -385.11,107.3 -385.11,244.5 0,137.2 215.32,41 341.58,41 126.26,0 -249.28,58.7 -249.28,107.3 0,48.6 131.76,23.1 131.76,74.7 0,51.6 -691.92,90.5 -610.94,216.7 80.98,126.2 452.96,-36.8 555.1,28.5 102.14,65.4 -545.66,136.6 -561.69,233.7 -16.03,97.1 477.32,-83.2 547.18,-13.4 69.87,69.9 -780.12,321 -744.51,505.5 35.62,184.5 644.25,-236.3 796.41,-191 152.16,45.3 -767.27,693.1 -553.6,945.4 213.67,252.4 621.58,-835.3 760.79,-796.5 139.21,38.9 -174.33,687.4 -32.13,800.2 142.21,112.8 550.38,-913.1 576.15,-1123.7 25.77,-210.7 77.57,453.1 300.95,530.8 223.38,77.6 6.47,-411.3 45.32,-560.2 38.85,-148.9 220.13,382 464.56,343.2 244.44,-38.9 -441.9,-524.5 -373.91,-666.9 67.98,-142.5 597.96,475.5 764.03,309.5 166.07,-166.1 -638.35,-627 -594.36,-753.2 44,-126.1 526.62,90.1 665.58,-48.9 138.97,-139 -518.46,-227.2 -605.63,-227.2 -87.17,0 -420.32,-109.6 -94.95,-88.1 325.37,21.6 -1630.36,-74.399 -1630.36,0" /><path
         id="path178"
         style="fill:#50bfa5;fill-opacity:1;fill-rule:nonzero;stroke:none"
         d="m 5494.1,988.199 c 0,0 541.49,-28.996 699.13,70.301 157.65,99.2 33.23,176.5 33.23,176.5 0,0 500.71,10.9 499.45,129.5 -1.25,118.6 -122.62,111.8 -122.62,111.8 0,0 252.73,171.8 205.59,278.8 -72.43,164.5 -484.08,-121.9 -484.08,-121.9 0,0 134.95,160.2 25.91,197.7 C 6051.39,1933.7 5494.1,988.199 5494.1,988.199" /><path
         id="path180"
         style="fill:#96d9c9;fill-opacity:1;fill-rule:nonzero;stroke:none"
         d="m 6808.88,1755.1 c 47.14,-107 -205.59,-278.8 -205.59,-278.8 0,0 182.41,2.4 152.8,-113 -29.49,-114.9 -488.11,-153.7 -488.11,-153.7 0,0 160.12,-31.3 2.47,-130.6 C 6112.8,979.801 5494.1,988.199 5494.1,988.199 L 6808.88,1755.1" /><g
         transform="scale(1.73728)"
         id="g182"><path
           id="path184"
           style="fill:#3c8f7c;fill-opacity:1;fill-rule:nonzero;stroke:none"
           d="m 16165.4,1540.29 c 106.6,166.75 126.5,368.1 124.5,507.63 -2.3,151.5 -30.3,264.9 -30.5,266.05 l 7.7,2.7 c 0.3,-1.15 28.5,-115.41 30.8,-267.89 2.1,-140.91 -18,-344.33 -126.1,-513.1 l -6.4,4.61" /></g><g
         transform="scale(1.73748)"
         id="g186"><path
           id="path188"
           style="fill:#3c8f7c;fill-opacity:1;fill-rule:nonzero;stroke:none"
           d="m 16231.2,2341.38 c 2.6,-34.24 17.8,-63.02 39.7,-80.69 18.6,23.88 29.1,56.58 26.5,90.88 -2.6,34.24 -17.8,63.02 -39.6,80.63 -18.8,-23.83 -29.2,-56.52 -26.6,-90.82" /></g><g
         transform="scale(1.7462)"
         id="g190"><path
           id="path192"
           style="fill:#3c8f7c;fill-opacity:1;fill-rule:nonzero;stroke:none"
           d="m 16221.9,2250.95 c -18,-29.49 -23.5,-63.11 -17.8,-92.26 27.6,6.59 54.3,25.89 72.3,55.38 18,29.55 23.6,63.11 17.8,92.32 -27.6,-6.59 -54.3,-25.89 -72.3,-55.44" /></g><g
         transform="scale(1.75137)"
         id="g194"><path
           id="path196"
           style="fill:#3c8f7c;fill-opacity:1;fill-rule:nonzero;stroke:none"
           d="m 16214.5,2151.97 c -27.9,-18.16 -46.8,-46.2 -54,-75.71 26.4,-7.54 57.5,-3.03 85.4,15.13 27.9,18.15 46.8,46.19 54.1,75.71 -26.6,7.54 -57.6,3.02 -85.5,-15.13" /></g><g
         transform="scale(1.74847)"
         id="g198"><path
           id="path200"
           style="fill:#3c8f7c;fill-opacity:1;fill-rule:nonzero;stroke:none"
           d="m 16228.9,2026.68 c -22.1,-14.47 -35.9,-39.12 -39.6,-66.45 23.1,-9.78 49,-8.58 71.1,5.83 22.2,14.47 35.8,39.12 39.6,66.46 -23,9.78 -49,8.58 -71.1,-5.84" /></g><g
         transform="scale(1.73618)"
         id="g202"><path
           id="path204"
           style="fill:#3c8f7c;fill-opacity:1;fill-rule:nonzero;stroke:none"
           d="m 16251.8,2194.76 c -25.1,13.37 -53.1,14.11 -77.1,4.5 6.4,-25.92 23.2,-49.13 48.3,-62.56 25,-13.36 53,-14.11 77,-4.43 -6.3,25.86 -23.2,49.13 -48.2,62.49" /></g><g
         transform="scale(1.73647)"
         id="g206"><path
           id="path208"
           style="fill:#3c8f7c;fill-opacity:1;fill-rule:nonzero;stroke:none"
           d="m 16251.8,2104.79 c -25.1,13.41 -53,14.16 -77.1,4.49 6.4,-25.92 23.3,-49.12 48.3,-62.48 25,-13.42 53,-14.17 77,-4.5 -6.3,25.86 -23.1,49.12 -48.2,62.49" /></g><g
         transform="scale(1.7429)"
         id="g210"><path
           id="path212"
           style="fill:#3c8f7c;fill-opacity:1;fill-rule:nonzero;stroke:none"
           d="m 16264.8,1891.16 c -13.2,-3.1 -24.2,-11.99 -30.8,-23.58 9.4,-7.86 22.1,-11.19 35.3,-8.15 13.2,3.1 24.1,12 30.7,23.58 -9.3,7.87 -22,11.25 -35.2,8.15" /></g><g
         transform="scale(1.80682)"
         id="g214"><path
           id="path216"
           style="fill:#3c8f7c;fill-opacity:1;fill-rule:nonzero;stroke:none"
           d="m 15585.4,1367.7 c 234.9,56.18 414,229.86 522.8,365.73 118.2,147.44 181.6,283.37 182.2,284.7 l 9.6,-4.87 c -0.7,-1.38 -64.4,-138.31 -183.4,-286.75 -109.9,-137.2 -290.9,-312.65 -528.6,-369.54 l -2.6,10.73" /></g><g
         transform="scale(1.817)"
         id="g218"><path
           id="path220"
           style="fill:#3c8f7c;fill-opacity:1;fill-rule:nonzero;stroke:none"
           d="m 16196,2058.67 c -24.6,-35.22 -32.8,-77.33 -25.9,-115.25 36.6,4.68 72.4,25.76 97,60.98 24.6,35.23 32.9,77.27 26,115.25 -36.7,-4.74 -72.5,-25.76 -97.1,-60.98" /></g><g
         transform="scale(1.81873)"
         id="g222"><path
           id="path224"
           style="fill:#3c8f7c;fill-opacity:1;fill-rule:nonzero;stroke:none"
           d="m 16186.8,1911.66 c -40.6,-10.77 -72.6,-37.49 -90.2,-71.03 31.6,-20.46 72.4,-27.94 113.1,-17.1 40.7,10.77 72.7,37.49 90.3,71.03 -31.6,20.46 -72.5,27.88 -113.2,17.1" /></g><g
         transform="scale(1.81275)"
         id="g226"><path
           id="path228"
           style="fill:#3c8f7c;fill-opacity:1;fill-rule:nonzero;stroke:none"
           d="m 16205.6,1789.38 c -41.4,9.77 -82,1.27 -112.6,-20.08 19.5,-33.15 53.1,-59.13 94.5,-68.9 41.3,-9.76 81.9,-1.21 112.5,20.14 -19.5,33.15 -53.1,59.13 -94.4,68.84" /></g><g
         transform="scale(1.80237)"
         id="g230"><path
           id="path232"
           style="fill:#3c8f7c;fill-opacity:1;fill-rule:nonzero;stroke:none"
           d="m 16205,1682.11 c -41.5,9.82 -82.4,1.22 -113.1,-20.25 19.6,-33.34 53.4,-59.47 95,-69.29 41.5,-9.77 82.4,-1.23 113.1,20.25 -19.6,33.34 -53.4,59.47 -95,69.29" /></g><g
         transform="scale(1.79521)"
         id="g234"><path
           id="path236"
           style="fill:#3c8f7c;fill-opacity:1;fill-rule:nonzero;stroke:none"
           d="m 16297.9,1885.07 c 2.1,40.17 -11.1,77.99 -33.7,105.23 -25.1,-21.39 -42.1,-55.54 -44.2,-95.7 -2.1,-40.22 11.1,-78.04 33.7,-105.28 25.1,21.44 42.1,55.59 44.2,95.75" /></g><g
         transform="scale(1.78446)"
         id="g238"><path
           id="path240"
           style="fill:#3c8f7c;fill-opacity:1;fill-rule:nonzero;stroke:none"
           d="m 16297.3,1773.59 c 2.7,40.35 -10,78.62 -32.3,106.48 -25.6,-21.08 -43.2,-55.15 -45.9,-95.5 -2.8,-40.34 10,-78.67 32.3,-106.47 25.5,21.07 43.1,55.09 45.9,95.49" /></g><g
         transform="scale(1.77826)"
         id="g242"><path
           id="path244"
           style="fill:#3c8f7c;fill-opacity:1;fill-rule:nonzero;stroke:none"
           d="m 16272.2,1587.34 c -15.4,10.07 -33.3,12.2 -49.2,7.42 2.8,-16.98 12.5,-32.84 27.9,-42.9 15.4,-10.07 33.3,-12.15 49.1,-7.43 -2.8,16.99 -12.5,32.84 -27.8,42.91" /></g><g
         transform="scale(1.66035)"
         id="g246"><path
           id="path248"
           style="fill:#3c8f7c;fill-opacity:1;fill-rule:nonzero;stroke:none"
           d="m 16283.9,1127.41 -11.1,0.79 c 15.9,292.28 -91.3,567.29 -184.1,746.52 -100.7,194.54 -206.6,321.45 -207.7,322.71 l 8.1,8.31 c 1,-1.27 107.7,-128.95 209,-324.63 93.7,-180.75 201.9,-458.28 185.8,-753.7" /></g><g
         transform="scale(1.62342)"
         id="g250"><path
           id="path252"
           style="fill:#3c8f7c;fill-opacity:1;fill-rule:nonzero;stroke:none"
           d="m 16193.1,2264.54 c 25.8,-43.49 62.9,-70.47 100.5,-77.86 6.4,45.27 -2.8,96.15 -28.6,139.64 -25.9,43.49 -62.9,70.47 -100.5,77.86 -6.4,-45.28 2.9,-96.22 28.6,-139.64" /></g><g
         transform="scale(1.63563)"
         id="g254"><path
           id="path256"
           style="fill:#3c8f7c;fill-opacity:1;fill-rule:nonzero;stroke:none"
           d="m 16209.3,2195.98 c -1.8,-52.15 13.7,-100.57 39.8,-134.87 28.3,28.79 47.2,73.73 49.1,125.82 1.8,52.09 -13.8,100.57 -39.9,134.87 -28.3,-28.79 -47.2,-73.73 -49,-125.82" /></g><g
         transform="scale(1.64777)"
         id="g258"><path
           id="path260"
           style="fill:#3c8f7c;fill-opacity:1;fill-rule:nonzero;stroke:none"
           d="m 16198.4,2087.74 c -20.9,-44.12 -24.8,-94.62 -13.9,-138.74 36.1,9.29 69.8,37.81 90.7,81.93 20.9,44.12 24.8,94.61 13.9,138.73 -36.1,-9.34 -69.8,-37.8 -90.7,-81.92" /></g><g
         transform="scale(1.64944)"
         id="g262"><path
           id="path264"
           style="fill:#3c8f7c;fill-opacity:1;fill-rule:nonzero;stroke:none"
           d="m 16256.4,1859.6 c -10,-17.7 -13.1,-38.74 -9.8,-57.6 15.4,2.67 30.4,13.4 40.4,31.17 10,17.7 13,38.74 9.7,57.59 -15.4,-2.67 -30.3,-13.4 -40.3,-31.16" /></g><g
         transform="scale(1.65269)"
         id="g266"><path
           id="path268"
           style="fill:#3c8f7c;fill-opacity:1;fill-rule:nonzero;stroke:none"
           d="m 16256.5,1774.98 c -10,-17.73 -13.1,-38.66 -9.7,-57.48 15.3,2.66 30.1,13.37 40.2,31.04 10,17.73 13,38.73 9.7,57.48 -15.3,-2.6 -30.2,-13.37 -40.2,-31.04" /></g><g
         transform="scale(1.63337)"
         id="g270"><path
           id="path272"
           style="fill:#3c8f7c;fill-opacity:1;fill-rule:nonzero;stroke:none"
           d="m 16202,2061.75 c -38.3,-0.55 -71.8,-19.89 -93.7,-50.02 24.5,-29.45 59.6,-47.75 98,-47.2 38.3,0.55 71.8,19.9 93.7,50.02 -24.5,29.45 -59.6,47.75 -98,47.2" /></g><g
         transform="scale(1.6396)"
         id="g274"><path
           id="path276"
           style="fill:#3c8f7c;fill-opacity:1;fill-rule:nonzero;stroke:none"
           d="m 16202.4,1938.52 c -38.2,-0.55 -71.5,-19.82 -93.4,-49.83 24.4,-29.33 59.4,-47.57 97.6,-47.02 38.1,0.55 71.6,19.82 93.4,49.83 -24.4,29.33 -59.4,47.57 -97.6,47.02" /></g><g
         transform="scale(1.64649)"
         id="g278"><path
           id="path280"
           style="fill:#3c8f7c;fill-opacity:1;fill-rule:nonzero;stroke:none"
           d="m 16236.8,1773.83 c -24.8,-0.36 -46.4,-12.87 -60.6,-32.31 15.8,-19.01 38.5,-30.85 63.2,-30.49 24.8,0.37 46.4,12.88 60.6,32.32 -15.9,19.01 -38.5,30.85 -63.2,30.48" /></g><g
         transform="scale(1.79069)"
         id="g282"><path
           id="path284"
           style="fill:#3c8f7c;fill-opacity:1;fill-rule:nonzero;stroke:none"
           d="m 15982.2,600.998 c 0,45.123 -272.4,-8.152 -295.1,53.334 -22.7,61.483 233.4,65.002 233.4,148.153 0,83.154 -130.5,24.851 -207,24.851 -76.5,0 151,35.572 151,65.004 0,29.43 -79.8,14.016 -79.8,45.289 0,31.218 419.2,54.784 370.2,131.291 -49.1,76.45 -274.5,-22.28 -336.4,17.26 -61.9,39.59 330.7,82.76 340.4,141.62 9.7,58.8 -289.2,-50.43 -331.6,-8.1 -42.3,42.33 472.7,194.45 451.1,306.25 -21.6,111.8 -390.3,-143.18 -482.5,-115.77 -92.2,27.48 464.8,419.95 335.4,572.86 -129.5,152.96 -376.6,-506.12 -460.9,-482.61 -84.4,23.57 105.6,416.49 19.4,484.84 -86.1,68.3 -333.5,-553.25 -349.1,-680.85 -15.6,-127.67 -47,274.53 -182.3,321.61 -135.4,47.02 -3.9,-249.18 -27.5,-339.43 -23.5,-90.19 -133.4,231.48 -281.5,207.97 -148.1,-23.57 267.8,-317.82 226.6,-404.1 -41.2,-86.33 -362.3,288.11 -463,187.53 -100.6,-100.63 386.8,-379.91 360.2,-456.303 -26.6,-76.452 -319.1,54.503 -403.3,-29.654 -84.2,-84.214 314.2,-137.711 366.9,-137.711 52.9,0 254.7,-66.401 57.6,-53.334 -197.2,13.069 987.8,-45.121 987.8,0" /></g><g
         transform="scale(1.67046)"
         id="g286"><path
           id="path288"
           style="fill:#50bfa5;fill-opacity:1;fill-rule:nonzero;stroke:none"
           d="m 16300,588.402 c 0,0 -351.7,-18.857 -454.1,45.616 -102.3,64.473 -21.5,114.639 -21.5,114.639 0,0 -325.3,7.064 -324.4,84.109 0.8,77.044 79.6,72.615 79.6,72.615 0,0 -164.1,111.589 -133.6,181.089 47.1,106.86 314.5,-79.2 314.5,-79.2 0,0 -87.7,104.1 -16.8,128.41 194.4,66.8 556.3,-547.278 556.3,-547.278" /></g><g
         transform="scale(1.67046)"
         id="g290"><path
           id="path292"
           style="fill:#3c8f7c;fill-opacity:1;fill-rule:nonzero;stroke:none"
           d="m 15446,1086.47 c -30.5,-69.5 133.6,-181.089 133.6,-181.089 0,0 -118.5,1.555 -99.3,-73.333 19.2,-74.652 317.1,-99.854 317.1,-99.854 0,0 -104,-20.353 -1.6,-84.826 102.4,-64.475 504.2,-58.966 504.2,-58.966 l -854,498.068" /></g><path
         id="path294"
         style="fill:#184655;fill-opacity:1;fill-rule:nonzero;stroke:none"
         d="m 3277.42,5712.6 c 0.88,29.3 41.29,52 62.73,26 21.35,-25.8 20.45,-8.4 41.26,-64.4 59.73,-160.7 147.53,-316.1 249.72,-452 195.8,-260.3 389.64,-391.7 609.71,-521.8 -90.68,204.3 -151.42,422.4 -159.16,642.4 -2.81,80.2 -1.27,163.3 33.03,236.9 9.57,20.6 46.38,16.3 50.11,-6.6 18.49,-113.5 -8.72,-199.1 28.02,-402.3 87.68,-484.8 434.71,-999 769.47,-1359.1 -64.19,609.6 -95.31,1302.4 19.5,1917.3 18.83,100.9 48.77,196.8 76.6,295.3 6.55,23.2 39.49,13.2 35.43,-9.8 -5.78,-32.7 -60.48,-455.9 -63.78,-485 -53.06,-468.3 -42.46,-987.1 -1.16,-1460.2 259.67,351.7 433.49,763 514.76,1192.5 24.03,126.9 30.44,258 64.12,382.6 4.64,17.2 33,19 36.53,0 34.59,-186.7 -34.68,-516.9 -85.16,-696.3 -102.3,-363.7 -265.98,-689.6 -489.76,-980.8 -8.7,-11.3 359.38,-2856.5 349.48,-2892.6 -16.68,-60.7 -122.54,-103.399 -138.96,4.4 -6.69,43.9 -208.93,1774 -300.19,2575.3 -34.49,19 -56.67,52.8 -145.37,152.5 -205.31,230.8 -408.32,518 -544.01,788.8 -81.42,4.6 -669.41,290.7 -961.08,942.2 -8.41,18.7 -46.28,106.9 -51.7,126.6 -4.64,16.8 -0.65,31.4 -0.14,48.1" /><path
         id="path296"
         style="fill:#3c8f7c;fill-opacity:1;fill-rule:nonzero;stroke:none"
         d="m 5165.79,6635.1 c -6.7,87.6 -10.18,177.1 -10.18,268.2 0,1016.3 431.33,1840.1 963.41,1840.1 532.07,0 963.41,-823.8 963.41,-1840.1 0,-91.1 -3.49,-180.6 -10.18,-268.2 H 5165.79" /><path
         id="path298"
         style="fill:#50bfa5;fill-opacity:1;fill-rule:nonzero;stroke:none"
         d="m 4075.47,7087.3 c -6.7,123.5 -10.18,249.8 -10.18,378.3 0,1433.2 431.33,2595.1 963.41,2595.1 532.08,0 963.41,-1161.9 963.41,-2595.1 0,-128.5 -3.49,-254.8 -10.19,-378.3 H 4075.47" /><path
         id="path300"
         style="fill:#50bfa5;fill-opacity:1;fill-rule:nonzero;stroke:none"
         d="m 4428.21,5497.1 c 6.7,87.6 10.19,177.2 10.19,268.3 0,1016.2 -431.33,1840.1 -963.41,1840.1 -532.07,0 -963.41,-823.9 -963.41,-1840.1 0,-91.1 3.48,-180.7 10.18,-268.3 h 1906.45" /><path
         id="path302"
         style="fill:#3c8f7c;fill-opacity:1;fill-rule:nonzero;stroke:none"
         d="m 5970.08,5497.1 c 8.49,123.5 12.91,249.8 12.91,378.3 0,1433.2 -546.8,2595.1 -1221.31,2595.1 -674.51,0 -1221.31,-1161.9 -1221.31,-2595.1 0,-128.5 4.42,-254.8 12.91,-378.3 h 2416.8" /><path
         id="path304"
         style="fill:#50bfa5;fill-opacity:1;fill-rule:nonzero;stroke:none"
         d="m 5032.34,8470.5 c 337.12,0 638.28,-368.6 837.04,-946.7 101.21,53.1 208.75,81.7 320.22,81.7 598.52,0 1083.71,-823.9 1083.71,-1840.1 0,-91.1 -3.92,-180.7 -11.45,-268.3 H 3960.09 c -7.53,123.5 -11.45,249.8 -11.45,378.3 0,1433.2 485.19,2595.1 1083.7,2595.1" /><path
         id="path306"
         style="fill:#184655;fill-opacity:1;fill-rule:nonzero;stroke:none"
         d="m 15935.8,2988.3 c -47.6,-11.2 -91.6,3.3 -98.4,32.4 l -1019.2,4347.7 c -6.8,29 26.3,61.6 73.8,72.8 47.6,11.1 91.7,-3.4 98.5,-32.4 L 16009.6,3061 c 6.8,-29 -26.3,-61.5 -73.8,-72.7" /><g
         transform="scale(1.02415)"
         id="g308"><path
           id="path310"
           style="fill:#f8c48b;fill-opacity:1;fill-rule:nonzero;stroke:none"
           d="m 15560.4,2995.94 c -3.6,12.99 -12.2,18.45 -24.2,15.43 -11.7,-2.93 -18,-11.53 -14.7,-24.02 3.2,-12.11 11.9,-17.48 24.1,-14.94 12.8,2.73 16.2,12.2 14.8,23.53 z m -261.2,-875.45 c 41.8,9.76 81.7,21.57 122.5,28.02 37.7,5.95 69.9,19.53 95.3,47.55 60.6,67.18 84.6,146.85 75.6,235.9 -2.6,26.95 -12.6,53.12 -19.4,79.58 -45.1,175.56 -90.1,351.12 -135.1,526.78 -3.6,13.76 -7.3,27.63 -10.3,41.59 -1.1,4.88 -0.3,10.15 1.7,16.41 8.8,-18.56 23.9,-17.29 38.2,-14.06 35.9,8 71.8,16.5 107.4,25.97 11.8,3.12 27.5,6.93 23.1,25.29 1.5,0.09 6.5,-4.98 7.4,-9.38 29.2,-135.72 57.9,-271.64 86.9,-407.46 8.4,-39.64 17.2,-79.19 25.6,-118.92 8.7,-41.31 13.1,-84.08 26.6,-123.81 30,-88.08 89.3,-150.96 177,-184.45 36.5,-13.86 72.2,-11.13 109.5,3.13 34.9,13.18 72.6,18.74 109.3,26.75 3.1,0.78 9.3,-4.1 11,-7.71 3.4,-7.52 4.9,-15.92 6.7,-24.02 42.7,-181.71 85.4,-363.43 127.9,-545.14 13.9,-58.97 8.3,-117.17 -8.6,-174.68 -28.3,-95.98 -80.4,-178.97 -141.5,-256.89 -25.7,-32.71 -52.9,-64.64 -81.7,-94.71 -50.6,-53.02 -112.4,-67.77 -181.4,-42.58 -104.7,38.18 -204,87.2 -291.8,156.72 -56.8,44.82 -105.2,96.86 -133.8,164.62 -5.6,13.18 -10.6,26.66 -13.9,40.52 -43.6,185.13 -87,370.36 -130.1,555.58 -2.3,9.67 -2.9,19.73 -4.1,29.4" /></g><g
         transform="scale(1.02415)"
         id="g312"><path
           id="path314"
           style="fill:#ee944c;fill-opacity:1;fill-rule:nonzero;stroke:none"
           d="m 16158.2,2287.65 c -1.8,8.1 -3.3,16.5 -6.7,24.02 -1.7,3.61 -7.9,8.39 -11,7.71 -36.7,-8.01 -74.4,-13.57 -109.3,-26.75 -37.3,-14.26 -73,-16.99 -109.5,-3.13 -87.7,33.49 -147,96.37 -177,184.45 -13.5,39.73 -17.9,82.5 -26.6,123.81 -8.4,39.73 -17.2,79.28 -25.6,118.92 -29,135.82 -57.7,271.74 -86.9,407.46 -0.9,4.4 -5.9,9.47 -7.4,9.38 4.4,-18.36 -11.3,-22.17 -23.1,-25.29 -18.7,-4.98 -37.6,-9.67 -56.4,-14.16 l 19.3,-82.6 c 10.9,1.95 18.9,-3.33 22.4,-15.53 1.3,-10.84 -1.9,-19.82 -13.4,-22.95 l 423.7,-1807.34 c 30.3,7.22 58.3,24.11 83.6,50.58 28.8,30.07 56,62 81.7,94.71 61.1,77.92 113.2,160.91 141.5,256.89 16.9,57.51 22.5,115.71 8.6,174.68 -42.5,181.71 -85.2,363.43 -127.9,545.14" /></g><path
         id="path316"
         style="fill:#f7a491;fill-opacity:1;fill-rule:nonzero;stroke:none"
         d="m 13861.5,1401.8 c -12.9,92.6 -16.9,234.8 -15.6,399 l -288.1,-64.7 c 33.7,-232.4 24,-348.7 24,-348.7 l -8.1,-73.4 -0.2,-217 h 709.4 c 0,0 -150.5,67.5 -361.2,200.8 -15.5,9.9 -51.4,41.3 -60.2,104" /><path
         id="path318"
         style="fill:#f7a491;fill-opacity:1;fill-rule:nonzero;stroke:none"
         d="m 12767.1,1474.3 94.2,270.2 h -246.8 c -12.9,-173.4 -17.7,-290.5 -17.7,-290.5 l -62.7,-177.6 -63.8,-211.1 c 0,0 210,-54.1 320.2,6.8 l -12.3,210.1 -11.1,192.1" /><path
         id="path320"
         style="fill:#f7cc7f;fill-opacity:1;fill-rule:nonzero;stroke:none"
         d="m 12778.2,1283 c -96.9,-43.1 -201.2,-17.1 -243.2,-3.3 l -13.9,-37.6 -53.4,-178.1 c 0,0 212.6,-65.699 322.8,-4.9 l -12.3,223.9" /><path
         id="path322"
         style="fill:#f7cc7f;fill-opacity:1;fill-rule:nonzero;stroke:none"
         d="m 13566.2,1043.2 h 737.5 c 27.3,2.4 33.9,24.7 24.5,38.5 -19.5,28.2 -105.6,49 -202.3,94.1 -169.6,-17.9 -525.5,99.2 -552.3,138.6 -15.5,-78.8 -22.6,-267.9 -7.4,-271.2" /><path
         id="path324"
         style="fill:#355389;fill-opacity:1;fill-rule:nonzero;stroke:none"
         d="m 13581.9,5193.5 -390.9,-2395.6 -419.9,-1392.8 -183.8,22.1 c 0,0 -13,663.1 87.5,1084.5 55,230.7 82.2,467 89.5,704.1 13,423.9 44.7,1022.7 121.8,1331.5 107.2,429.3 227.9,656.5 227.9,656.5 l 467.9,-10.3" /><path
         id="path326"
         style="fill:#466eb6;fill-opacity:1;fill-rule:nonzero;stroke:none"
         d="m 13197.1,4653 c -42.5,-512.1 384.8,-3203.5 384.8,-3203.5 h 274.2 c 0,0 225.2,2813.7 179.3,3087.6 -46,273.9 -182.7,720.1 -182.7,720.1 l -614.7,-48 c 0,0 -29.4,-417.2 -40.9,-556.2" /><path
         id="path328"
         style="fill:#f7a491;fill-opacity:1;fill-rule:nonzero;stroke:none"
         d="m 13479.4,7575.4 c 0,-61.9 -23.1,-112 -51.6,-112 -28.5,0 -51.7,50.1 -51.7,112 0,61.9 23.2,112 51.7,112 28.5,0 51.6,-50.1 51.6,-112" /><path
         id="path330"
         style="fill:#f47458;fill-opacity:1;fill-rule:nonzero;stroke:none"
         d="m 13544.5,6848.9 c -423.8,171 -638.5,114.4 -712,77.1 l 3.6,-645.4 c 12,-54.1 -36,-1631.5 -51,-1816.2 0,0 1114.4,-112.1 1313.1,117.7 0,0 -246.5,906.6 -215.9,1140.1 47.9,365.7 -301.4,1112 -337.8,1126.7" /><path
         id="path332"
         style="fill:#f7a491;fill-opacity:1;fill-rule:nonzero;stroke:none"
         d="m 13924.4,6395 c 0,0 185.1,-221.1 211.2,-242.3 0,0 524.2,252 740.3,379.7 2.4,1.9 4.9,3.7 7.3,5.7 4,3.3 10,5.6 9.7,12.1 -1.6,29.4 2,130.1 5.3,173.4 0.9,11.9 4.4,23.4 10.3,33.8 12.9,23.2 37,66.5 37,66.5 l 12.1,-51.5 c 3.7,-16 20,-26.5 36.1,-23.3 h 0.3 c 16.4,3.2 30.8,11.8 45.6,20.6 19.4,11.6 43.3,17.9 66,20.6 22.1,2.7 39.5,-9.9 46.7,-32.8 4.4,-14 5.4,-30.4 13.5,-41.7 14.2,-19.4 73.8,-214.1 44.5,-241.4 -14.6,-13.7 -101.8,-51.7 -138,-60.9 -26.3,-6.6 -50.4,-19.2 -69.5,-34.5 -4.2,-3.4 -8.7,-6.3 -13.4,-9.1 l 0.1,-0.1 c -150.7,-106.4 -651,-472.8 -651,-472.8 0,0 -249.7,-161.1 -297.6,-135.7 -47.9,25.4 -395.6,437 -395.6,437 l 279.1,196.7" /><path
         id="path334"
         style="fill:#f7a491;fill-opacity:1;fill-rule:nonzero;stroke:none"
         d="m 13280.7,7328.7 c 0,0 9.9,-238.1 -11.5,-328.4 -21.4,-90.2 -49.9,-97.1 133.7,-124.5 72.1,-10.8 141.6,-26.9 141.6,-26.9 0,0 -18.8,132.5 -21.6,188.5 -4.7,92.2 21.2,376.7 21.2,376.7 l -263.4,-85.4" /><path
         id="path336"
         style="fill:#f47458;fill-opacity:1;fill-rule:nonzero;stroke:none"
         d="m 13420.5,7210.2 c 37.8,-20.4 73.1,-32.5 105.6,-37.5 6.2,112.5 18,241.4 18,241.4 l -251.3,-81.5 c 29.2,-48.7 70.6,-91.5 127.7,-122.4" /><path
         id="path338"
         style="fill:#b75742;fill-opacity:1;fill-rule:nonzero;stroke:none"
         d="m 13310.5,6586.6 c -1.8,-225 385.2,-635.1 385.2,-635.1 0,0 349.5,277.5 399.9,373.6 0,0 -375,398.1 -399,422 -109,108.3 -216.5,83.2 -284.7,58.5 -54.7,-19.8 -101.4,-219 -101.4,-219" /><path
         id="path340"
         style="fill:#184655;fill-opacity:1;fill-rule:nonzero;stroke:none"
         d="m 13152.1,6494.8 c 212.1,185.1 292.1,593.2 153.7,836.4 96.1,125 157.7,102.7 136.3,258.3 -42.3,306.8 384.8,491.6 65.8,573.2 -322.4,64.7 -590.5,-133.4 -737.9,-330.1 -66.5,-88.6 -149.2,-165.3 -247.4,-219.1 -194.7,-106.8 -297.4,-363 -194,-630.1 -155.9,-87.5 -292.1,-340.5 -188.9,-550.5 24.8,-50.4 74.8,-109.4 76.4,-123.8 -3,17.8 -145.3,-450.6 386.1,-610.2 542.2,-162.7 653.9,357.8 549.9,795.9" /><path
         id="path342"
         style="fill:#184655;fill-opacity:1;fill-rule:nonzero;stroke:none"
         d="m 12997,7840.4 c -62.8,-258.9 277,-446.9 546,-453.8 174.9,-4.4 255.2,13.5 283.5,197.8 45.8,298.8 -77.3,481 -249.8,556.4 -222.6,97.3 -527.9,-86.9 -579.7,-300.4" /><path
         id="path344"
         style="fill:#f7a491;fill-opacity:1;fill-rule:nonzero;stroke:none"
         d="m 13392.1,8014.5 c 0,0 -118.3,-39.8 -181.3,-159.2 -63,-119.4 -31.7,-501.9 230.6,-628 262.3,-126.1 382.9,160.3 363.8,371.6 -19,211.4 -95,487.9 -413.1,415.6" /><path
         id="path346"
         style="fill:#ffffff;fill-opacity:1;fill-rule:nonzero;stroke:none"
         d="m 13556,7425.8 186.1,2.9 c 0,0 -3.2,-72.1 -85,-75.7 -99.8,-4.5 -101.1,72.8 -101.1,72.8" /><path
         id="path348"
         style="fill:#184655;fill-opacity:1;fill-rule:nonzero;stroke:none"
         d="m 13117.6,7565.9 c -38.8,197.6 -23.6,347.4 116.8,419.7 140.4,72.3 260.4,144 386.1,14.1 l 28.4,-16 c 0,0 -237.1,-65.6 -250.4,-191.5 -13.2,-125.9 -139.2,-275.6 -119.8,-337.5 19.4,-61.8 41.8,-185.2 41.8,-185.2 l -52,42.7 c 0,0 -112.1,56.1 -150.9,253.7" /><path
         id="path350"
         style="fill:#f7a491;fill-opacity:1;fill-rule:nonzero;stroke:none"
         d="m 13362,7641.5 c 19.6,-54.5 4.8,-109.3 -33.1,-122.3 -37.8,-13.1 -84.4,20.6 -104,75.2 -19.6,54.6 -4.8,109.4 33.1,122.4 37.8,13 84.4,-20.7 104,-75.3" /><g
         transform="scale(1.08777)"
         id="g352"><path
           id="path354"
           style="fill:#184655;fill-opacity:1;fill-rule:nonzero;stroke:none"
           d="m 16300,4164.59 c 0,0 -193.7,-428.68 -402.6,-648.67 v -65.73 l 313.6,457.45 89,256.95" /></g><g
         transform="scale(1.10155)"
         id="g356"><path
           id="path358"
           style="fill:#184655;fill-opacity:1;fill-rule:nonzero;stroke:none"
           d="m 16298.5,4853.09 c 1.5,216.51 -47.3,297.94 -48.1,285.24 -1.7,-30.24 2.4,-87.43 4.7,-163.68 0,-9.36 -2,-483.87 -144.4,-828.39 -0.7,-1.72 -1.5,-3.63 -2.2,-5.35 -1.5,-3.45 -3,-6.72 -4.4,-10.08 -2.9,-6.63 -5.7,-13.07 -8.4,-19.52 -6.3,-13.89 -11.3,-25.23 -15.3,-34.86 -156.1,-355.22 -207.5,-402.88 -381.8,-604.51 -0.2,556.49 -38.2,1184.97 -200.7,1729.11 -26.6,89.24 -62.8,172.94 -97.3,259.28 -8,20.33 -36.9,8.17 -31,-12.26 8.3,-29.05 228,-807.95 217.5,-1845.77 -0.2,-12.98 -51.8,-2613.235 -39.4,-2644.828 20.9,-53.196 120.5,-81.611 125,17.248 1.8,40.31 19.2,1621.45 25.1,2353.6 28.6,18.16 423.1,602.97 508.1,924.7 69.7,263.73 91.6,459.72 92.6,599.62 l 0.1,0.36 -0.1,0.09" /></g><g
         transform="scale(1.03975)"
         id="g360"><path
           id="path362"
           style="fill:#3c8f7c;fill-opacity:1;fill-rule:nonzero;stroke:none"
           d="m 16242.2,5923.36 c 40.5,-45.11 57.8,-105.9 52.3,-165.24 -54.5,-4.71 -109.7,15.39 -150.2,60.59 -40.4,45.11 -57.7,105.9 -52.2,165.24 54.4,4.71 109.7,-15.49 150.1,-60.59" /></g><g
         transform="scale(1.05099)"
         id="g364"><path
           id="path366"
           style="fill:#50bfa5;fill-opacity:1;fill-rule:nonzero;stroke:none"
           d="m 16276.5,5868.83 c -23.6,-77.07 -80.8,-138.44 -152.1,-172.98 -42.8,58.7 -57.8,135.39 -34.3,212.37 23.6,77.07 80.8,138.44 152.1,172.98 42.8,-58.71 57.8,-135.4 34.3,-212.37" /></g><g
         transform="scale(1.0991)"
         id="g368"><path
           id="path370"
           style="fill:#3c8f7c;fill-opacity:1;fill-rule:nonzero;stroke:none"
           d="m 16254.9,5247.48 c 31.6,-35.21 45.1,-82.7 40.8,-129.1 -42.6,-3.64 -85.7,12.1 -117.3,47.4 -31.6,35.21 -45.1,82.71 -40.8,129.11 42.6,3.64 85.7,-12.1 117.3,-47.41" /></g><g
         transform="scale(1.10814)"
         id="g372"><path
           id="path374"
           style="fill:#50bfa5;fill-opacity:1;fill-rule:nonzero;stroke:none"
           d="m 16281.6,5211.61 c -18.5,-60.37 -63.4,-108.47 -119.2,-135.54 -33.5,46.02 -45.2,106.12 -26.8,166.4 18.5,60.38 63.2,108.47 119.1,135.55 33.6,-46.03 45.3,-106.13 26.9,-166.41" /></g><g
         transform="scale(1.09193)"
         id="g376"><path
           id="path378"
           style="fill:#3c8f7c;fill-opacity:1;fill-rule:nonzero;stroke:none"
           d="m 16197,4404.48 c 45.7,-13.55 82.2,-47.16 103,-89.2 -34.5,-25.64 -79.9,-34.8 -125.6,-21.24 -45.7,13.64 -82.3,47.16 -103,89.2 34.5,25.64 79.9,34.89 125.6,21.24" /></g><g
         transform="scale(1.09509)"
         id="g380"><path
           id="path382"
           style="fill:#50bfa5;fill-opacity:1;fill-rule:nonzero;stroke:none"
           d="m 16283.9,4482.09 c 16.1,-61.73 2.9,-126.93 -30.9,-179.89 -53.3,21.91 -95.3,67.48 -111.3,129.21 -16,61.82 -2.9,127.02 30.9,179.99 53.3,-21.92 95.3,-67.49 111.3,-129.31" /></g><g
         transform="scale(1.05428)"
         id="g384"><path
           id="path386"
           style="fill:#3c8f7c;fill-opacity:1;fill-rule:nonzero;stroke:none"
           d="m 16180.5,3808.19 c 44.5,3.12 87.5,-14.23 119.5,-44.11 -21.8,-33.77 -58.4,-56.72 -102.8,-59.85 -44.4,-3.23 -87.5,14.13 -119.5,44.1 21.8,33.67 58.4,56.72 102.8,59.86" /></g><g
         transform="scale(1.05509)"
         id="g388"><path
           id="path390"
           style="fill:#50bfa5;fill-opacity:1;fill-rule:nonzero;stroke:none"
           d="m 16255.5,3928.5 c 34.5,-48.82 44.5,-110.33 32.3,-167.86 -54,1.61 -105.7,27.68 -140.1,76.58 -34.5,48.82 -44.5,110.33 -32.3,167.86 53.9,-1.61 105.7,-27.77 140.1,-76.58" /></g><g
         transform="scale(1.05023)"
         id="g392"><path
           id="path394"
           style="fill:#3c8f7c;fill-opacity:1;fill-rule:nonzero;stroke:none"
           d="m 16159.5,4803.98 c 47.4,14.47 98.3,6.38 140.5,-18.09 -15.2,-42.08 -49.2,-76.08 -96.6,-90.55 -47.5,-14.47 -98.4,-6.38 -140.6,18.19 15.2,41.98 49.2,75.98 96.7,90.45" /></g><g
         transform="scale(1.05026)"
         id="g396"><path
           id="path398"
           style="fill:#50bfa5;fill-opacity:1;fill-rule:nonzero;stroke:none"
           d="m 16223.3,4959.45 c 49.5,-44.47 75.6,-108.74 76.7,-174.24 -58.9,-11.62 -121.6,3.8 -171.2,48.27 -49.5,44.47 -75.7,108.64 -76.7,174.15 58.9,11.61 121.5,-3.71 171.2,-48.18" /></g><g
         transform="scale(1.10646)"
         id="g400"><path
           id="path402"
           style="fill:#3c8f7c;fill-opacity:1;fill-rule:nonzero;stroke:none"
           d="m 16287,4763.48 c -13,-30.46 -39.1,-53.14 -69.8,-64.17 -15,25.85 -17.8,57.93 -4.9,88.48 13,30.55 39.2,53.14 69.9,64.26 15,-25.94 17.8,-58.02 4.8,-88.57" /></g><g
         transform="scale(1.1158)"
         id="g404"><path
           id="path406"
           style="fill:#50bfa5;fill-opacity:1;fill-rule:nonzero;stroke:none"
           d="m 16202.3,4624.67 c -43.7,-6.27 -87.5,7.89 -121.2,35.32 19.1,34.95 53.8,60.22 97.6,66.4 43.7,6.19 87.5,-7.97 121.3,-35.31 -19.3,-34.95 -53.9,-60.22 -97.7,-66.41" /></g><g
         transform="scale(1.05228)"
         id="g408"><path
           id="path410"
           style="fill:#3c8f7c;fill-opacity:1;fill-rule:nonzero;stroke:none"
           d="m 16297.3,5434.95 c -2.7,-34.78 -21.2,-66.14 -48,-87.43 -23.6,20.81 -37.2,51.79 -34.4,86.57 2.6,34.79 21,66.15 47.9,87.43 23.7,-20.81 37.2,-51.79 34.5,-86.57" /></g><g
         transform="scale(1.0625)"
         id="g412"><path
           id="path414"
           style="fill:#50bfa5;fill-opacity:1;fill-rule:nonzero;stroke:none"
           d="m 16225.1,5301.44 c -41.4,-20.89 -89.8,-21.46 -132.6,-5.46 7.5,41.23 33.5,77.93 74.9,98.83 41.5,20.8 89.9,21.36 132.6,5.36 -7.4,-41.13 -33.4,-77.92 -74.9,-98.73" /></g><g
         transform="scale(1.08982)"
         id="g416"><path
           id="path418"
           style="fill:#3c8f7c;fill-opacity:1;fill-rule:nonzero;stroke:none"
           d="m 16275.1,3924.68 c -18.1,-19.18 -43.8,-28.81 -69.8,-28.54 -3.9,23.4 2.8,48.08 20.9,67.26 18.2,19.08 43.9,28.72 69.9,28.54 3.9,-23.49 -2.9,-48.18 -21,-67.26" /></g><g
         transform="scale(1.09505)"
         id="g420"><path
           id="path422"
           style="fill:#50bfa5;fill-opacity:1;fill-rule:nonzero;stroke:none"
           d="m 16208.6,3817.55 c -34.4,7.49 -63.3,30.22 -80.9,60.08 24.1,20.83 57,30.14 91.4,22.56 34.4,-7.49 63.3,-30.23 80.9,-60.09 -24.1,-20.73 -57,-30.04 -91.4,-22.55" /></g><g
         transform="scale(1.06267)"
         id="g424"><path
           id="path426"
           style="fill:#3c8f7c;fill-opacity:1;fill-rule:nonzero;stroke:none"
           d="m 16291.1,4455.36 c -8.9,-25.5 -28.9,-45.35 -53.3,-55.99 -13.6,20.23 -17.6,46.11 -8.7,71.61 8.9,25.6 28.9,45.45 53.3,56.09 13.6,-20.24 17.6,-46.21 8.7,-71.71" /></g><g
         transform="scale(1.07019)"
         id="g428"><path
           id="path430"
           style="fill:#50bfa5;fill-opacity:1;fill-rule:nonzero;stroke:none"
           d="m 16224.1,4346.33 c -35.2,-7.48 -71.6,1.68 -100.6,22.15 13.7,29.43 40.4,51.95 75.8,59.42 35.3,7.39 71.7,-1.77 100.7,-22.23 -13.7,-29.44 -40.6,-51.96 -75.9,-59.34" /></g><g
         transform="scale(1.12134)"
         id="g432"><path
           id="path434"
           style="fill:#b75742;fill-opacity:1;fill-rule:nonzero;stroke:none"
           d="m 14381.1,1174.66 c 69.2,47.53 101.7,113.79 185.4,117.99 54.4,2.76 112,3.03 158,32.01 63,39.6 140.7,68.58 198.3,115.75 47.2,38.53 110.8,48.79 171.1,57.61 98.5,14.36 197.1,28.81 295.7,43.26 36.2,5.26 72.8,10.61 109.2,6.15 133.2,-16.14 220.6,-153.92 349.4,-191.65 60.8,-17.83 128.3,-12.39 184.8,-41.02 73,-37.01 108.7,-121.1 126.5,-201.1 10.9,-48.95 109.6,-77.23 131.9,-174.43 8.6,-19.083 -62.7,9.008 -80.7,-1.784 -17.9,-10.789 -39.7,-12.217 -60.7,-13.286 -524.9,-28.092 -1051,-33.888 -1576.3,-17.39 -63.4,2.052 -395.7,-34.602 -437.4,23.542 -48.5,67.511 192.8,208.678 244.8,244.348" /></g><g
         transform="scale(1.2391)"
         id="g436"><path
           id="path438"
           style="fill:#f7a491;fill-opacity:1;fill-rule:nonzero;stroke:none"
           d="m 16300,4093.7 c 0,0 -112,28.33 -130.6,35.76 -18.5,7.42 -91.4,20.41 -97.3,11.13 -6,-9.28 44.1,-49.47 47.9,-50.76 3.7,-1.21 82.8,-30.91 85.9,-30.91 3.1,0 94.1,34.78 94.1,34.78" /></g><g
         transform="scale(1.33282)"
         id="g440"><path
           id="path442"
           style="fill:#f7a491;fill-opacity:1;fill-rule:nonzero;stroke:none"
           d="m 16215.2,4612.32 c -25.9,-138.06 -154,-85.31 -181.5,-90.19 l -255.9,-542.45 -590.9,-173.47 -145.2,-1.58 c 7.2,-5.4 -101.3,0.75 -143.7,-22.66 2.5,-7.05 14.6,-16.13 17.7,-23.03 33.5,-65.42 82.4,-117.34 99.4,-189.3 26.8,3.91 64.2,10.43 99.2,26.79 39.9,18.68 148.3,61.45 148.3,61.45 0.1,0 626.4,124.24 662.3,150.81 31.4,23.25 375.1,659.42 290.3,803.63" /></g><g
         transform="scale(1.31574)"
         id="g444"><path
           id="path446"
           style="fill:#f7a491;fill-opacity:1;fill-rule:nonzero;stroke:none"
           d="m 16270.5,1112.91 10.5,-173.591 c 3.9,-21.966 19,-76.308 19,-96.294 0,-75.092 -356.6,63.765 -276.7,97.051 7.2,2.966 45.1,25.767 47.5,51.379 3.7,39.375 13,119.025 13,119.025 l 186.7,2.43" /></g><g
         transform="scale(1.31687)"
         id="g448"><path
           id="path450"
           style="fill:#f47458;fill-opacity:1;fill-rule:nonzero;stroke:none"
           d="m 16010.5,939.96 c 0,0 83.6,-22.933 126.5,-28.705 42.9,-5.695 99.4,42.602 129.7,29.542 33.3,-14.354 32,-143.677 32,-143.677 0,0 -448.6,-36.83 -574.8,1.293 -49.9,15.033 115.6,88.088 286.6,141.547" /></g><g
         transform="scale(1.36414)"
         id="g452"><path
           id="path454"
           style="fill:#13375b;fill-opacity:1;fill-rule:nonzero;stroke:none"
           d="m 16262,3722.05 c 0,0 38,-253.71 -9.5,-365.07 -47.5,-111.27 -407.5,-1203.32 -412.3,-1292.38 -4.7,-89 -124.5,-1073.205 -124.5,-1073.205 l -250.1,7.035 -54.1,1094.24 113.3,1375.23 110,347.69 627.2,-93.54" /></g><g
         transform="scale(1.37463)"
         id="g456"><path
           id="path458"
           style="fill:#f7a491;fill-opacity:1;fill-rule:nonzero;stroke:none"
           d="m 16271.8,1065.23 10,-166.151 c 3.7,-21.026 18.2,-73.04 18.2,-92.17 0,-71.874 -341.3,61.034 -264.9,92.894 7,2.839 54,40.957 56.3,65.401 3.5,37.756 1.6,97.696 1.6,97.696 l 178.8,2.33" /></g><g
         transform="scale(1.37587)"
         id="g460"><path
           id="path462"
           style="fill:#f47458;fill-opacity:1;fill-rule:nonzero;stroke:none"
           d="m 16021.6,899.653 c 0,0 80.1,-21.95 121.1,-27.474 41,-5.452 95.1,40.775 124.1,28.274 32,-13.738 33.2,-137.515 33.2,-137.515 0,0 -431.4,-41.065 -552.7,1.237 -47.1,16.425 110.7,84.311 274.3,135.478" /></g><g
         transform="scale(1.37407)"
         id="g464"><path
           id="path466"
           style="fill:#184655;fill-opacity:1;fill-rule:nonzero;stroke:none"
           d="m 16201.1,3681.91 c 0,0 57.9,-279.75 34.3,-491.89 -23.6,-212.22 -25.4,-965.82 -25.4,-965.82 l 90,-1205.84 -213.6,-4.65 c 0,0 -357.8,1251.68 -353,1220.68 4.7,-30.93 -85,848.65 -85,848.65 l 406.5,625.44 146.2,-26.57" /></g><g
         transform="scale(1.33256)"
         id="g468"><path
           id="path470"
           style="fill:#f7cc7f;fill-opacity:1;fill-rule:nonzero;stroke:none"
           d="m 15813.2,4076.88 300.2,-111.97 c 0,0 80.2,249.15 111.6,369.82 38.2,146.33 75,338.07 56.2,338.67 -52.5,1.5 -126.5,-8.41 -180.5,-52.68 -186.9,-153.17 -287.5,-543.84 -287.5,-543.84" /></g><g
         transform="scale(1.38028)"
         id="g472"><path
           id="path474"
           style="fill:#fae0b2;fill-opacity:1;fill-rule:nonzero;stroke:none"
           d="m 15484.3,4212.2 c -8.8,-44.12 -224.4,-1157.81 -224.4,-1157.81 545.6,-299.21 947.3,-156.78 947.3,-156.78 0,0 -20.7,824.62 7.2,938.94 18.4,75.71 85.6,574.16 36.8,590.9 -62.6,21.52 -157.3,53.25 -236.3,65.64 -67.4,10.5 -330.6,28.18 -378.6,14.78 0,0 -115.3,-110.05 -152,-295.67" /></g><g
         transform="scale(1.38882)"
         id="g476"><path
           id="path478"
           style="fill:#184655;fill-opacity:1;fill-rule:nonzero;stroke:none"
           d="m 15825.6,5383.29 c 0,0 -200.9,88.06 -254.6,-86.4 0,0 -175,4.68 -131.7,-173.03 0,0 -168.2,-100.88 -40.9,-319.12 0,0 -32.7,-216.66 217.5,-211.62 0,0 42.8,-72.72 155.2,-46.73 112.5,25.99 139.2,58.11 139.2,58.11 0,0 206.1,-44 253.6,142.57 0,0 136.1,43.34 29.9,214.28 0,0 103.9,239.63 -114.3,293.13 0,0 -42.2,233.94 -253.9,128.81" /></g><g
         transform="scale(1.37172)"
         id="g480"><path
           id="path482"
           style="fill:#f7a491;fill-opacity:1;fill-rule:nonzero;stroke:none"
           d="m 16175.8,4916.51 c -12.6,-45.56 2.2,-89.44 32.9,-97.98 30.9,-8.52 66.1,21.51 78.7,67.07 12.6,45.57 -2.1,89.45 -33,97.98 -30.7,8.53 -65.9,-21.5 -78.6,-67.07" /></g><g
         transform="scale(1.32599)"
         id="g484"><path
           id="path486"
           style="fill:#f7a491;fill-opacity:1;fill-rule:nonzero;stroke:none"
           d="m 16179,5158.32 c 1.3,-48.87 29.1,-87.78 62.3,-86.95 33,0.9 58.7,41.25 57.4,90.19 -1.3,48.87 -29.2,87.79 -62.2,86.96 -33,-0.91 -58.8,-41.26 -57.5,-90.2" /></g><g
         transform="scale(1.35809)"
         id="g488"><path
           id="path490"
           style="fill:#f7a491;fill-opacity:1;fill-rule:nonzero;stroke:none"
           d="m 16031.1,4743.96 c 0.2,-3.32 -18.8,-125.33 -28.9,-189.9 -3.8,-24.01 10,-47.35 32.9,-55.82 61,-22.6 179.9,-51.61 254.8,27.1 6.9,7.14 10.1,17.01 9,26.88 l -31,285.55 -236.8,-93.81" /></g><g
         transform="scale(1.35634)"
         id="g492"><path
           id="path494"
           style="fill:#f48c7f;fill-opacity:1;fill-rule:nonzero;stroke:none"
           d="m 16041.7,4681.73 c 65,-26.91 143.7,-21.68 228.2,36.57 10.7,7.37 20.7,15.18 30.1,23.22 l -11.1,102.48 -237.1,-93.93 c 0.1,-1.62 -4.3,-31.04 -10.1,-68.34" /></g><g
         transform="scale(1.36967)"
         id="g496"><path
           id="path498"
           style="fill:#f7a491;fill-opacity:1;fill-rule:nonzero;stroke:none"
           d="m 16022.7,5312.89 c 0,0 98.4,-18.32 162.2,-108.05 63.6,-89.81 115.1,-359.07 -78.7,-492.82 -193.8,-133.83 -354.9,39.27 -363.9,213.55 -9.1,174.28 51.7,402.51 280.4,387.32" /></g><g
         transform="scale(1.34771)"
         id="g500"><path
           id="path502"
           style="fill:#ffffff;fill-opacity:1;fill-rule:nonzero;stroke:none"
           d="m 16095,4926.45 205,-1.49 c 0,0 -5.3,-77.76 -95.5,-79.76 -109.9,-2.38 -109.5,81.25 -109.5,81.25" /></g><g
         transform="scale(1.37018)"
         id="g504"><path
           id="path506"
           style="fill:#184655;fill-opacity:1;fill-rule:nonzero;stroke:none"
           d="m 15819.6,5273.09 c 0,0 107,10.07 169.6,-23.5 62.5,-33.5 209.8,-276.83 251.5,-263.98 41.7,12.84 59.3,165.96 43,196.1 -16.3,30.07 -89.6,130.93 -97.6,135.6 -7.9,4.68 -97.8,40.51 -114.8,42.99 -16.9,2.48 -149.4,-3.79 -149.4,-3.79 l -102.3,-83.42" /></g><g
         transform="scale(1.4029)"
         id="g508"><path
           id="path510"
           style="fill:#f7a491;fill-opacity:1;fill-rule:nonzero;stroke:none"
           d="m 15369.9,3141.92 c -18.4,11.19 47.4,86.39 38.5,105.56 -9,19.18 -110.2,-61.87 -125.2,-50.96 -27.7,20.24 105.4,95.66 93.2,105.78 -12.1,10.12 -153.2,-60.95 -157.2,-29.8 -4,31.15 153.9,58.38 145.7,75.06 -8.2,16.61 -144.6,-38.56 -167.8,-6.34 -12.4,17.18 245.2,64.72 258.4,90.52 13.2,25.81 -92.6,67.65 -85.6,92.53 7,24.8 185.2,-91.24 201,-87.61 15.9,3.71 347,102.79 450,150.98 -13.1,36.99 -58.2,258.46 -71.2,292.96 75.7,5.2 121.1,89.17 195.8,98.72 37.8,-118.89 154.5,-470.74 138.8,-502.46 -47.6,-96.44 -560.5,-170.71 -653.1,-177.13 -92.8,-6.48 -115.1,-47.54 -165.5,-66.86 -50.4,-19.39 -77.5,-102.14 -95.8,-90.95" /></g><g
         transform="scale(1.3981)"
         id="g512"><path
           id="path514"
           style="fill:#f7cc7f;fill-opacity:1;fill-rule:nonzero;stroke:none"
           d="m 16300,3780.83 -347.7,-168.08 c 0,0 -54.6,255.34 -95.3,413.2 -35.1,135.68 138.2,377.15 195.9,344.11 129.1,-73.96 247.1,-589.23 247.1,-589.23" /></g><g
         transform="scale(1.24026)"
         id="g516"><path
           id="path518"
           style="fill:#355389;fill-opacity:1;fill-rule:nonzero;stroke:none"
           d="m 16083.4,3495.15 -52.5,66.11 17.3,9.84 c 65.2,36.92 111.6,96.59 130.7,168.02 18.9,70.88 8.5,144.97 -29.1,208.67 -7,11.93 -14.4,22.65 -22.4,32.81 -48.7,61.69 -123.2,98.45 -204.4,100.71 -81,2.34 -157.3,-30 -209.3,-88.53 l -13.5,-15.16 -52.4,66.04 10.4,10.72 c 73.9,76.35 164.6,113.36 269.6,109.98 144,-4.52 269.5,-94.02 319.5,-227.94 52.7,-140.53 15.5,-294.53 -94.7,-392.42 -16.9,-14.99 -35.3,-28.46 -56.3,-41.12 l -12.9,-7.73" /></g><g
         transform="scale(1.23021)"
         id="g520"><path
           id="path522"
           style="fill:#f47458;fill-opacity:1;fill-rule:nonzero;stroke:none"
           d="m 16265.9,3496.07 v 0 l -465.4,586.08 c -0.7,0.65 -1.4,1.47 -2.1,2.44 -1,1.38 -2.1,2.77 -3.2,4.15 l -20.2,25.44 c -3.9,4.8 -7.6,9.51 -11.3,14.31 l -0.1,0.08 c -3.8,4.87 -7.5,9.75 -11.2,14.71 -7,9.67 -12.3,11.87 -23.4,5.04 -48.3,-29.42 -97.3,-57.8 -146,-86.81 -10.1,-6.02 -20.8,-10.33 -32.3,-13.01 -71.2,-16.5 -142.3,-33.41 -213.5,-49.75 -10.9,-2.44 -13.4,-5.44 -7.9,-16.09 6.8,-13.41 10.6,-28.29 17.4,-41.78 6.1,-12.44 3.1,-18.7 -9,-24.8 -17.8,-9.1 -17,-9.83 -9.2,-28.45 27.1,-64.21 53.9,-128.59 80.9,-192.81 34.6,-82.18 69.3,-164.28 103.8,-246.46 10.3,-24.55 20.3,-49.1 31.6,-76.41 -12.8,4.8 -22.7,8.53 -32.6,12.27 -173.3,64.71 -346.4,129.49 -519.6,194.12 -10.2,3.73 -17.3,9.51 -23.3,18.61 -21.8,33.49 -44.3,66.57 -66.6,99.74 -8.3,12.27 -16.9,24.22 -27,38.53 -35.1,-93.72 -69.3,-184.93 -104.5,-279.06 56.6,14.96 109.8,28.78 162.9,43.17 7.5,2.03 13.9,1.78 21,-1.31 215,-92.58 430.1,-185.09 645.3,-277.35 7.8,-3.41 12.1,-8.45 15.2,-16.25 15.8,-38.29 32.4,-76.25 47.9,-114.62 3.5,-8.7 6.8,-8.62 13.8,-4.47 20,12.19 40.2,23.98 60.4,35.93 183.1,108.36 366.2,216.79 549.5,324.99 9.2,5.44 12.8,8.53 3.9,18.85 -8.6,10.08 -17,20.49 -25.2,30.97" /></g><g
         transform="scale(1.17707)"
         id="g524"><path
           id="path526"
           style="fill:#b75742;fill-opacity:1;fill-rule:nonzero;stroke:none"
           d="m 16009.5,4182.6 27.8,-85.21 262.7,155.38 -290.5,-70.17" /></g><g
         transform="scale(1.13021)"
         id="g528"><path
           id="path530"
           style="fill:#355389;fill-opacity:1;fill-rule:nonzero;stroke:none"
           d="m 16300,3907.33 c -2.2,2.3 -4.2,4.96 -6.2,7.88 -23.7,36.45 -48.2,72.46 -72.5,108.56 -9.1,13.36 -18.5,26.37 -29.4,41.94 -38.2,-102.02 -75.4,-201.29 -113.7,-303.75 61.6,16.28 119.4,31.32 177.2,46.98 l 44.6,98.39" /></g><g
         transform="scale(1.18681)"
         id="g532"><path
           id="path534"
           style="fill:#c3a19d;fill-opacity:1;fill-rule:nonzero;stroke:none"
           d="m 16234.8,3206.5 c -0.3,0.58 -0.5,1.17 -0.8,1.85 0.3,-0.68 0.5,-1.27 0.8,-1.85 m -1.5,3.7 c -0.2,0.43 -0.4,0.84 -0.5,1.27 0.1,-0.43 0.3,-0.84 0.5,-1.27 m -1.5,3.71 c -0.1,0.17 -0.2,0.34 -0.3,0.59 0.1,-0.25 0.2,-0.42 0.3,-0.59 m -9.2,22.16 c -3.6,8.51 -7.2,16.94 -10.7,25.45 v 0 c 3.5,-8.51 7.1,-16.94 10.7,-25.45 m -4.6,1012.55 c 23.1,13.65 46.2,27.3 69.2,41.12 -23,-13.82 -46.1,-27.56 -69.2,-41.12 m 70.2,41.79 c 1,0.59 2,1.18 3,1.85 -1,-0.67 -2,-1.26 -3,-1.85 m 5.7,3.45 c 0.5,0.26 1,0.51 1.5,0.85 -0.5,-0.34 -1,-0.59 -1.5,-0.85 m 5.2,3.12 c 0.3,0.17 0.6,0.34 0.9,0.51 -0.3,-0.17 -0.6,-0.34 -0.9,-0.51" /></g><g
         transform="scale(1.22993)"
         id="g536"><path
           id="path538"
           style="fill:#d5654d;fill-opacity:1;fill-rule:nonzero;stroke:none"
           d="m 15673.9,3083.27 c -2.7,0 -4.8,2.12 -6.8,7.24 v 0 c -0.5,1.22 -1,2.36 -1.4,3.58 -0.3,0.57 -0.5,1.13 -0.8,1.79 -0.2,0.56 -0.5,1.22 -0.7,1.79 -0.2,0.4 -0.3,0.81 -0.5,1.22 -0.3,0.81 -0.7,1.62 -1,2.35 -0.1,0.16 -0.1,0.33 -0.2,0.57 -2.9,6.91 -5.7,13.91 -8.6,20.82 -3.5,8.21 -6.9,16.34 -10.4,24.55 307.3,289.53 105.9,759.72 3.5,950.95 0.8,0.49 1.7,1.06 2.5,1.55 22.3,13.08 44.5,26.34 66.7,39.67 0.3,0.25 0.7,0.41 1,0.65 1,0.57 2,1.14 2.9,1.79 0.9,0.49 1.7,0.98 2.6,1.55 0.4,0.24 0.9,0.49 1.4,0.81 1.2,0.73 2.4,1.46 3.6,2.19 0.3,0.17 0.6,0.33 0.9,0.49 1.3,0.82 2.7,1.63 4,2.44 4.4,2.69 7.8,3.99 10.8,3.99 4.7,0 8.4,-3.09 12.7,-9.03 3.6,-4.96 7.4,-9.84 11.1,-14.71 l 0.1,-0.08 c 3.7,-4.8 7.5,-9.52 11.3,-14.32 l 20.2,-25.44 c 1.2,-1.39 2.2,-2.77 3.2,-4.15 0.7,-0.98 1.5,-1.79 2.1,-2.44 l 465.5,-586.22 v 0 c 8.3,-10.48 16.7,-20.89 25.3,-30.97 3.6,-4.15 5.1,-7.07 5.1,-9.51 0,-3.66 -3.6,-6.1 -9.1,-9.35 -183.3,-108.22 -366.5,-216.68 -549.6,-325.06 -20.2,-11.96 -40.4,-23.74 -60.4,-35.94 -2.9,-1.71 -5.2,-2.77 -7,-2.77" /></g><g
         transform="scale(1.23415)"
         id="g540"><path
           id="path542"
           style="fill:#ed9a8c;fill-opacity:1;fill-rule:nonzero;stroke:none"
           d="m 16287.8,3952.91 c 12.2,-18.96 8.1,-44.08 -9.4,-58.26 -32.8,-26.73 -92.3,-64.58 -131.7,-28.11 -57,52.5 -82.3,219.66 -52.8,220.72 29.5,1.05 180.7,-59.24 177.7,-90.67 -1.7,-18.23 7.4,-29.9 16.2,-43.68" /></g><g
         transform="scale(2.00933)"
         id="g544"><path
           id="path546"
           style="fill:#29446d;fill-opacity:1;fill-rule:nonzero;stroke:none"
           d="m 15387.5,1557.04 c 68.6,178.56 135.9,357.18 184.6,542.96 150.2,571.63 114,988.29 108.3,1188.66 -0.7,26.42 41.8,33.69 45.5,6.37 12.8,-94.02 15.6,-189.52 16.2,-284.43 1,-160.3 -8.7,-320.7 -29.2,-480.9 110.1,-28.67 214.3,14.28 299.5,91.42 147,133.03 199.4,310.3 222.5,506.69 2.3,20.05 3.1,39.01 19.5,50.61 3.5,10.3 18.6,13.49 22.4,-1.89 23.2,-23.94 12,-71.96 8.4,-102.87 -48.5,-418.25 -302.8,-621 -507.5,-619.21 -22.4,0.2 -49.7,1.29 -74.1,8.06 -14.7,-100.03 -33.7,-199.37 -56.9,-297.66 -44.2,-187.33 -106.3,-368.03 -174.5,-547.15 -233.5,-612.29 -308,-925.08 -374.2,-1102.304 -10.1,-35.634 -62.8,-20.704 -53.5,15.329 3.2,12.889 185.3,616.125 343,1026.315" /></g><g
         transform="scale(1.89041)"
         id="g548"><path
           id="path550"
           style="fill:#29446d;fill-opacity:1;fill-rule:nonzero;stroke:none"
           d="m 15361.5,3366.05 c 2.3,13.97 10.5,23.28 13.6,36.4 4.1,17.29 32.3,18.99 35.3,0 1.7,-10.9 7.7,-17.62 10.1,-28.73 7.5,-36.02 -10.8,-238.47 37,-548.4 12.7,-82.36 26.7,-164.3 54.1,-242.91 44.4,-127.12 125.2,-264.07 225.6,-350.66 3.2,181.54 14.1,362.83 35.9,543.16 13,107.96 29.4,215.35 49.4,322.1 9.7,52 20.2,103.84 31.6,155.52 11.8,54.17 23,106.22 48.9,155.26 8,15.08 30.7,8.09 30.7,-8.62 0.1,-48.14 -9.5,-92.47 -19.5,-139.23 -10,-46.55 -19.4,-93.26 -28.1,-140.08 -64.6,-347.01 -88.8,-655.2 -88.6,-1002.64 106.4,133.88 199.5,294.22 268.5,451.7 82.9,189.32 138.7,393.04 161.9,599.77 6.5,57.87 10.5,116 11.7,174.19 0.6,30.15 1.3,60.31 1.8,90.46 0.4,15.5 6.3,62.26 32.5,48.56 24,-12.59 21.7,-40.73 23.7,-65.33 2.2,-26.77 2.4,-53.48 2,-80.35 -0.6,-51.47 -3.4,-102.89 -8.1,-154.15 -34.6,-371.24 -174.6,-738.25 -387.7,-1038.93 -32.4,-45.87 -66,-95.01 -105.4,-135 9.1,-594.21 99.3,-1386.475 100.8,-1446.461 0.4,-13.276 0,-9.84 -4.9,-14.758 -19.3,-19.308 -41.9,-25.656 -49.2,-4.92 -13.6,39.145 -11.4,75.856 -31.8,292.635 -36.4,386.534 -77.2,1272.114 -77,1308.024 -126.5,90.88 -216.1,230.64 -274.6,376.64 -31,77.45 -49.2,157.16 -62.9,239.69 -46.5,280.62 -45.1,561.15 -37.3,607.06" /></g><g
         transform="scale(2.04152)"
         id="g552"><path
           id="path554"
           style="fill:#4e9b87;fill-opacity:1;fill-rule:nonzero;stroke:none"
           d="m 15029.4,3565.92 c -4.4,39.63 -6.7,80.18 -6.7,121.48 0,460.14 285.9,833.15 638.6,833.15 352.7,0 638.7,-373.01 638.7,-833.15 0,-41.3 -2.3,-81.85 -6.8,-121.48 h -1263.8" /></g><g
         transform="scale(1.95099)"
         id="g556"><path
           id="path558"
           style="fill:#50bfa5;fill-opacity:1;fill-rule:nonzero;stroke:none"
           d="m 14970.4,3945.63 c -4.6,58.53 -7.1,118.35 -7.1,179.24 0,679.04 299.3,1229.52 668.4,1229.52 369.1,0 668.3,-550.48 668.3,-1229.52 0,-60.89 -2.4,-120.71 -7.1,-179.24 h -1322.5" /></g><g
         transform="scale(1.95023)"
         id="g560"><path
           id="path562"
           style="fill:#4e9b87;fill-opacity:1;fill-rule:nonzero;stroke:none"
           d="m 16291.1,3193.46 c 5.9,58.56 8.9,118.4 8.9,179.32 0,679.3 -379.4,1230 -847.5,1230 -468.1,0 -847.6,-550.7 -847.6,-1230 0,-60.92 3.1,-120.76 9,-179.32 h 1677.2" /></g><g
         transform="scale(2.05737)"
         id="g564"><path
           id="path566"
           style="fill:#50bfa5;fill-opacity:1;fill-rule:nonzero;stroke:none"
           d="m 14825.8,4363.1 c 221.8,0 419.9,-165.6 550.7,-425.35 66.6,23.86 137.3,36.7 210.6,36.7 393.8,0 712.9,-370.14 712.9,-826.74 0,-40.93 -2.6,-81.17 -7.5,-120.54 h -2172 c -4.9,55.51 -7.5,112.23 -7.5,169.97 0,643.93 319.1,1165.96 712.8,1165.96" /></g><g
         transform="scale(2.02799)"
         id="g568"><path
           id="path570"
           style="fill:#13375b;fill-opacity:1;fill-rule:nonzero;stroke:none"
           d="M 16300,485.357 H 810.925 v 40.238 H 16300 v -40.238" /></g></g></g></svg>